<?xml version="1.0" encoding="utf-8"?>
<!-- Generator: Adobe Illustrator 25.2.3, SVG Export Plug-In . SVG Version: 6.00 Build 0)  -->
<svg version="1.1" id="Layer_1" xmlns="http://www.w3.org/2000/svg" xmlns:xlink="http://www.w3.org/1999/xlink" x="0px" y="0px"
	 viewBox="0 0 2456 100vh" style="enable-background:new 0 0 3000 1500;" xml:space="preserve">
<style type="text/css">
	.st0{fill:#E6E7E8;}
	.st1{fill:#D1D3D4;}
	.st2{fill:#A7A9AC;}
	.st3{fill:#F1F2F2;}
	.st4{fill:#BCBEC0;}
</style>
<g id="Layer_1_1_">
	<g>
		<path class="st0" d="M2388.9,1457.9l-0.9-0.9h-1.2l3.5-195.4l82.8,118.3L2388.9,1457.9z M2392.6,1269.3l-3.3,184.7l80.4-74.5
			L2392.6,1269.3z"/>
		<path class="st0" d="M2388.2,1458.6l-0.9-0.5l-189-124.3l194.4-70.1l-3.4,193.9L2388.2,1458.6z M2204,1334.4l182.9,120.2
			l3.4-187.4L2204,1334.4z"/>
		<path class="st0" d="M1999.5,1375.9l-0.9-3.2l-34.1-129.3l241.2,91.1l-205.1,39L1999.5,1375.9z M1968.2,1247.5l32.5,123.4
			l195.8-37.2L1968.2,1247.5z"/>
		<path class="st0" d="M1999.5,1375.9l-0.9-3.3l-77.1-239.8l2.4-0.9l43.6,113l33.6,127.4l-0.2,0.5L1999.5,1375.9z M1937.3,1173.5
			l49.3,153.4l-21.4-81.2L1937.3,1173.5z"/>
		<path class="st0" d="M1583.1,1343.4l-1.7-1.8l181.3-270.4l163,60.9l-2.2,1.3L1583.1,1343.4z M1763.6,1074.2l-177,264l333.3-205.6
			L1763.6,1074.2z"/>
		<path class="st0" d="M1582.2,1344.8l-127.6-248.1l1.9-0.2l309.1-25.3l-1.4,2.2L1582.2,1344.8z M1458.6,1098.9l123.9,241
			l178.1-265.7L1458.6,1098.9z"/>
		<path class="st0" d="M1344.9,1293.1l-1.2-0.4l-1.2-0.6l0.7-1.2l0,0l0,0l131.4-270.2l2.3,0.9l-19.3,76.9L1345.5,1292L1344.9,1293.1
			z M1471.7,1032.5l-111.1,228.4l94.9-163.7L1471.7,1032.5z"/>
		<path class="st0" d="M1344.9,1293.2l-1.6-0.8l-0.2-0.4l-100.7-253.6l1.7-0.1l233.8-18.5L1344.9,1293.2z M1246,1040.6l98.4,247.8
			l129.3-265.8L1246,1040.6z"/>
		<path class="st0" d="M1035.7,1214.5l1-2.7h-1.7l2.4-2l80.5-220.7l1.2,0.5l127.6,49.6l-207.1,172.2l-0.2,0.5h-0.4L1035.7,1214.5z
			 M1119.3,992.4l-78.1,214.3l200.5-166.7L1119.3,992.4z"/>
		<path class="st0" d="M1039.3,1211.8h-1.6l-0.3-0.7l-166.5-308l249.3,86.8l-0.4,1.2L1039.3,1211.8z M876.2,907.7l162.1,299.8
			l78.8-216L876.2,907.7z"/>
		<path class="st0" d="M582.8,1121.2L639,816.5l1.4,0.5l235.7,88.1l-1.9,1.4L582.8,1121.2z M640.9,819.9l-54.5,295.5l284.5-209.6
			L640.9,819.9z"/>
		<path class="st0" d="M585.8,1118.6l-2.5-0.1l-32-291.4l90.2-10.3L585.8,1118.6z M554.1,829.3l30.8,280.4l53.5-290.1L554.1,829.3z"
			/>
		<path class="st0" d="M251,993.5l-0.1-0.2l-1.5-1.7l155.9-198.1l150.9,34.2L251,993.5l-0.1-0.2L251,993.5z M406.3,796.3l-151.1,192
			l294-159.7L406.3,796.3z"/>
		<path class="st0" d="M249.7,994.1l-0.4-1.5l-62-216.5l1.8,0.1l219.3,17.5L251,993.5L249.7,994.1z M190.6,779L251,989.6L403.4,796
			L190.6,779z"/>
		<polygon class="st0" points="0,770 0,772.5 184.2,778.7 3.5,876.9 0,821.3 0,861.4 1.1,879 2.4,879 3,880.1 193.6,776.5 		"/>
		<polygon class="st0" points="0,821.3 0,861.4 0.9,876.3 0,875.5 0,878.7 3.8,881.7 		"/>
		<polygon class="st0" points="3000,1351.7 2788.3,1438.6 2958.4,1210.6 3000,1233.3 3000,1230.5 2957.7,1207.3 2783.6,1440.7
			2780.9,1444.4 3000,1354.4 		"/>
		<path class="st0" d="M2784,1444.4l-0.3-1.2l-2.8,1.1l2.3-3.1L2720,1179l240.4,29l-1.3,1.7l-173.2,232.1l0.1,0.5l-0.7,0.3
			L2784,1444.4z M2785.2,1438.6l170.6-228.6l-232.5-28.1L2785.2,1438.6z"/>
		<path class="st0" d="M2786.6,1444.4l-115.6-79.1l49.5-185.2h2.4L2786.6,1444.4z M2673.9,1364.2l108.7,74.4l-61-253.1
			L2673.9,1364.2z"/>
		<path class="st0" d="M2471,1381.6l-1.1-2.2l0.7-0.7l146-135.6l104.4-63.8l1.4,2.1L2471,1381.6z M2618,1245.2l-121.7,113.1
			l208.8-166.3L2618,1245.2z"/>
		<path class="st0" d="M2467.4,1381.2l256.4-204.2l-50.5,188.8L2467.4,1381.2z M2719.5,1183.8l-244.1,194.4l196-14.6L2719.5,1183.8z
			"/>
		<path class="st0" d="M2471,1381.8l-0.7-1.6l-114.7-253.3l263.9,116.9l-1.4,1.3L2471,1381.8z M2360.6,1131.8l111.2,245.7l143.1-133
			L2360.6,1131.8z"/>
		<path class="st0" d="M2470.4,1380.4l-80.1-114.5l-33.5-136.3l2.4-0.8l113.4,250.3L2470.4,1380.4z M2392.6,1264.9l72.1,103
			l-102.2-225.6L2392.6,1264.9z"/>
		<path class="st0" d="M2201.5,1335.7l-2-1l0.4-1.1l94.2-232.5l65.8,27.7L2201.5,1335.7z M2295.5,1104.4l-89.7,221.6l150.3-196.1
			L2295.5,1104.4z"/>
		<path class="st0" d="M2197.6,1336.7l161.1-210.2l34.3,139.7l-1,0.4L2197.6,1336.7z M2357.5,1132.2l-152.7,199.2l185.2-66.8
			L2357.5,1132.2z"/>
		<path class="st0" d="M2201.1,1337.6l-0.9-2.6l-0.6-0.3l0.2-0.7l-97.6-273.8l194.4,41.7l-94.1,232.2l0.9,2.5l-1.6-0.8
			L2201.1,1337.6z M2106.1,1063.6l95.1,267l91.9-226.8L2106.1,1063.6z"/>
		<path class="st0" d="M2203.3,1336.2l-2.5-1l-236.3-89.2l140.2-186.8L2203.3,1336.2z M1968.4,1244.8l230.7,87.1l-95.3-267.4
			L1968.4,1244.8z"/>
		<path class="st0" d="M1922.3,1133.9l-28.1-44.8l209.8-28.5l0.6,2.4L1922.3,1133.9z M1898.4,1091.1l24.9,39.8l170.6-66.3
			L1898.4,1091.1z"/>
		<path class="st0" d="M1966.1,1248l-44.9-116.3l186.7-72.6L1966.1,1248z M1924.4,1133.1l42.4,109.7l133.8-178.2L1924.4,1133.1z"/>
		<path class="st0" d="M1921.9,1133.2L1921.9,1133.2l-201.7-216.9l1.8-1.7l175.3,174.6l0.1,0.1l26.4,42.3L1921.9,1133.2z
			 M1766.9,962.9l147.8,159l-19.4-31L1766.9,962.9z"/>
		<path class="st0" d="M1922.4,1133.6l-160.3-59.9l-0.2-0.6l-42-157.2l2.1-1.2l201.7,216.9L1922.4,1133.6z M1764.2,1071.8
			l154.1,57.6l-194.6-209.3L1764.2,1071.8z"/>
		<path class="st0" d="M1457.3,1098.8l-1.8-1.6l127.1-235.6l141.2,53.6L1457.3,1098.8z M1583.8,864.7l-123.6,229.1l258.2-177.9
			L1583.8,864.7z"/>
		<path class="st0" d="M1452.1,1099.4l269.8-185.9l0.5,1.7l42.4,158.6L1452.1,1099.4z M1720.4,917.6l-259.2,178.6l300.3-24.6
			L1720.4,917.6z"/>
		<path class="st0" d="M1456.2,1101.3l-57.5-254.7l1.7,0.2l184.9,15.2l-0.9,1.7L1456.2,1101.3z M1401.8,849.4l55.3,244.8l124.1-230
			L1401.8,849.4z"/>
		<path class="st0" d="M1457.8,1098.1h-2.4L1399,848.3l2.4-0.8l75.7,173.6L1457.8,1098.1z M1404.4,860.6l52.3,231.7l17.8-71.1
			L1404.4,860.6z"/>
		<path class="st0" d="M1242.8,1043.2l0.1-2.4h-1.3l1.4-1.7l8.8-216.6l1.4,0.2l149.4,24.5L1245.4,1040v0.8h-0.6L1242.8,1043.2z
			 M1254.2,825.4l-8.6,210.4l152.3-186.9L1254.2,825.4z"/>
		<path class="st0" d="M1241.3,1041l159.2-195.4l77.1,176.7l-1.8,0.2L1241.3,1041z M1399.9,850.4L1247,1038l226.9-18L1399.9,850.4z"
			/>
		<path class="st0" d="M1245.4,1040.8h-1.8l-118.7-142.7l129.4-76.4L1245.4,1040.8z M1128.7,898.8l114.4,137.5l8.6-210.1
			L1128.7,898.8z"/>
		<path class="st0" d="M1248.2,1042.4l-131-50.8l8.6-96.3L1248.2,1042.4z M1119.9,989.9l120.2,46.7l-112.3-135L1119.9,989.9z"/>
		<path class="st0" d="M872.7,906.8l-0.6-1.2L952,703.2l177.5,196.5L872.7,906.8z M952.9,707.8l-77.5,196.4l248.7-7L952.9,707.8z"/>
		<path class="st0" d="M1119.7,992.5l-1.5-0.5l-245.1-85.3l0.4-2.4l254.7-7.1L1119.7,992.5z M880.4,906.5l237.1,82.5l7.9-89.3
			L880.4,906.5z"/>
		<path class="st0" d="M872.4,906.1l-155-269.7l236.7,68.2l-79.5,201.3l-1.1-0.4L872.4,906.1z M722.7,640.6l150.6,262l77.5-196.3
			L722.7,640.6z"/>
		<path class="st0" d="M876.3,907.9l-238-89L720,635.7L876.3,907.9z M641.7,817.5l229,85.6L720.2,641.3L641.7,817.5z"/>
		<path class="st0" d="M553.1,829.8l-1-0.6l-1.2-0.8l1-1.1l0,0l0,0l79-103.5l88.3-86.2l1.8,1.8L553.8,828.9L553.1,829.8z M697,662.8
			l-64.2,62.7l-57.5,75.3L697,662.8z"/>
		<path class="st0" d="M549.6,829.8l169.5-192.1l2.1,1.3l-80.4,180.4L549.6,829.8z M715.6,645.5l-159.8,181l83.3-9.5L715.6,645.5z"
			/>
		<path class="st0" d="M553,829.9l-1-0.7l-105.4-88.7l188-17.5L553,829.9z M452.8,742.5l99.7,83.8L629.1,726L452.8,742.5z"/>
		<path class="st0" d="M552.4,829.4l-148.9-33.7l46-55.9l104,87.5L552.4,829.4z M408.1,794.1L548,825.8l-98.1-82.5L408.1,794.1z"/>
		<path class="st0" d="M188,779l-0.4-1.4l64.2-245.8l200.5,210.6L188,779z M253,536.8l-62.5,239.3L447,740.6L253,536.8z"/>
		<path class="st0" d="M406.4,796.2l-217.6-17.3l-0.1-2.5l264-36.5L406.4,796.2z M200.5,777.3l204.8,16.3l41.4-50.4L200.5,777.3z"/>
		<path class="st0" d="M187.7,778l-72-197.3l138.5-48.4L190,777.9l-1.2-0.3L187.7,778z M119,582.3l69.7,191.1l61.9-237.1L119,582.3z
			"/>
		<polygon class="st0" points="0,766.6 117.1,584.3 187.1,776.3 0,770 0,772.5 190.7,778.9 117.7,578.7 0,762 		"/>
		<polygon class="st0" points="0,529.1 0,531.9 114.5,581.6 0,641.9 0,644.8 120.3,581.4 		"/>
		<polygon class="st0" points="0,641.9 0,644.8 113.8,584.8 0,762 0,766.6 121,578.2 		"/>
		<path class="st0" d="M2721.3,1182.6l-1-2l32.9-156.7l154.1-27.3L2721.3,1182.6z M2755.3,1026.1l-31.6,150.5l176.1-176.1
			L2755.3,1026.1z"/>
		<path class="st0" d="M2959.8,1210.4l-1.8-0.2l-239-28.8l185.3-185.2L2959.8,1210.4z M2724.4,1179.5l232,28L2903,1001
			L2724.4,1179.5z"/>
		<path class="st0" d="M2720.6,1181.1l-158.8-259.9l193.9,103.1l-0.2,0.9l-32.6,155.4l-1.1-0.2L2720.6,1181.1z M2568.7,927.7
			l152.4,249.4l31.8-151.4L2568.7,927.7z"/>
		<path class="st0" d="M2616.3,1246.2L2564,924.7l2.3-0.9l157.1,257.1L2616.3,1246.2z M2567.5,930.6l50.6,311.6l101.8-62.1
			L2567.5,930.6z"/>
		<path class="st0" d="M2356.6,1132.5l0.1-1.9h-1.7l1.9-1.8l13.1-259.7l1.5,0.4l196.2,54.3l-208.4,206.1v0.7h-0.7L2356.6,1132.5z
			 M2372.4,872.4l-12.9,253.8l203.4-201.1L2372.4,872.4z"/>
		<path class="st0" d="M2618.8,1246.3l-2.1-0.9l-260.8-115.6l210.2-207.9l0.4,2.4L2618.8,1246.3z M2360.2,1129l255.4,113.1
			l-51.2-315L2360.2,1129z"/>
		<path class="st0" d="M2359.2,1130.6h-2l-0.4-0.7l-119.7-224.4l135.4-36.5L2359.2,1130.6z M2240.9,907.2l116.1,217.6l12.8-252.4
			L2240.9,907.2z"/>
		<path class="st0" d="M2360.8,1131.9l-67-28.2l-0.1-0.6l-55.9-196.4l2.3-0.9L2360.8,1131.9z M2295.9,1101.8l59.3,25l-111.8-209.5
			L2295.9,1101.8z"/>
		<path class="st0" d="M2103.3,1064.8l-31.3-260L2241,906L2103.3,1064.8z M2075.1,809.6l30,249.3l132-152.2L2075.1,809.6z"/>
		<path class="st0" d="M2296.7,1104.4l-194.8-41.8l137.7-158.8L2296.7,1104.4z M2106.5,1061.1l186.6,40l-54.7-192.2L2106.5,1061.1z"
			/>
		<path class="st0" d="M2105.9,1065.4l-241.6-250.2l210.3-9.3L2105.9,1065.4z M1870,817.5l232.5,240.8l-30.1-249.8L1870,817.5z"/>
		<path class="st0" d="M1895.2,1091.5l-29.7-278.7l241.3,249.9l-2.4,0.3L1895.2,1091.5z M1868.8,819.8l28.7,268.8l204.1-27.7
			L1868.8,819.8z"/>
		<path class="st0" d="M1721.7,916.7l-0.2-0.4l-1.4-1.3l85.1-147.7l64.2,49.2L1722,916.7l-0.4-0.3L1721.7,916.7z M1805.8,771
			L1725,911.4l140-95.1L1805.8,771z"/>
		<path class="st0" d="M1897.9,1093.5l-178.8-178.1l149-101.2L1897.9,1093.5z M1723.1,915.7l171.6,170.9l-28.6-268.1L1723.1,915.7z"
			/>
		<path class="st0" d="M1720.9,917l-0.7-0.6l-181.9-170.3l269.2,21.9l-1,1.7L1722,916.5L1720.9,917z M1545.3,749.2l175.5,164.3
			l82.6-143.4L1545.3,749.2z"/>
		<path class="st0" d="M1720.7,916.7l-138.4-52.6l-41.6-116l2-1.4L1722,914.6L1720.7,916.7z M1584.2,862.2l131.4,49.9l-170.8-159.9
			L1584.2,862.2z"/>
		<path class="st0" d="M1400.4,849.5l-1.4-0.6l-0.4-100.5l147.3-2L1400.4,849.5z M1401.1,750.8l0.4,94.8l136.4-96.6L1401.1,750.8z"
			/>
		<path class="st0" d="M1585.1,864.5L1396.7,849l145.8-103.3L1585.1,864.5z M1403.8,847l177.6,14.7l-40.2-112L1403.8,847z"/>
		<path class="st0" d="M1401.5,852.4l-2.1-3.4l-0.4-0.2v-0.5l-68.6-109.6l70.7,9.7l0.4,99.2l2,3.2l-2-0.9V852.4z M1335.3,742
			l63.7,101.6l-0.4-92.9L1335.3,742z"/>
		<path class="st0" d="M1402.8,849.7l-152.3-25l82.6-86.4L1402.8,849.7z M1255.5,823l142.2,23.3l-65-103.9L1255.5,823z"/>
		<path class="st0" d="M1127.6,899.4l-0.9-1.1l-1-0.4l68.8-191.2l141.3,33L1127.6,899.4z M1196,709.8l-66.6,185L1330,741L1196,709.8
			z"/>
		<path class="st0" d="M1127.4,899.5l-1.4-2.1l206.1-158l1.7,1.9l-80.1,83.7L1127.4,899.5z M1320.6,751.4L1144,886.8l108.1-63.9
			L1320.6,751.4z"/>
		<path class="st0" d="M1126.7,900.3l-0.9-1.2l-164-218.7l235.2,26.8l-69.3,192.1L1126.7,900.3z M967.3,683.6l159.1,212.2
			l67.1-186.4L967.3,683.6z"/>
		<path class="st0" d="M1125.9,899.3L951,705.6l13.3-26l163.5,218L1125.9,899.3z M954,705.2l155.2,171.9L964.7,684.4L954,705.2z"/>
		<path class="st0" d="M964.3,683.3l-243.8-43.4l-1.5,1.3l-0.2-2.5l-7.1-107L965.2,681L964.3,683.3z M721.3,637.4l236.6,42.1
			L714.5,536.2L721.3,637.4z"/>
		<path class="st0" d="M953.1,706.9l-233.4-67.2l0.6-2.4l246.1,43.8L953.1,706.9z M743.6,644l208.2,60l10.8-21L743.6,644z"/>
		<path class="st0" d="M721.5,642l-1.6-1.7l-1,0.9l-0.2-2.1L602.4,512.4l111.8,20.4l7,105.2l0.6,0.6l-0.5,0.5L721.5,642z
			 M609.4,516.2L718.6,635l-6.7-100.1L609.4,516.2z"/>
		<path class="st0" d="M630.9,727.2l-26.7-216.6l117.7,128L630.9,727.2z M607.6,518l25.2,203.8l85.5-83.4L607.6,518z"/>
		<path class="st0" d="M450.7,742.3l-1.4-0.6l-0.8,0.2L398.6,528l1.5-0.1l208.4-15L450.7,742.3z M401.7,530.3l48.6,208.2
			l153.1-222.8L401.7,530.3z"/>
		<path class="st0" d="M447.1,743l159.6-232.2l26.5,214.8L447.1,743z M605.1,517.7L452.3,740l178.2-16.6L605.1,517.7z"/>
		<polygon class="st0" points="450.9,741.8 448.5,741.8 365.8,389.5 368.3,388.9 401.4,528.8 451,741.5 		"/>
		<path class="st0" d="M452,745.8L250.8,534.4l116.9-148L452,745.8z M254.1,534.2l193.3,203.1l-81-345.3L254.1,534.2z"/>
		<path class="st0" d="M115.5,584.5l21.6-105l0.6-0.3L366.6,388l1.2,2.2L115.5,584.5z M139.3,481.4l-20,97l239.8-184.7L139.3,481.4z
			"/>
		<path class="st0" d="M117.8,582.7l-1.2-2.2l249.6-192.3l1.7,1.8L253.2,535.4L117.8,582.7z M359.8,396.4L124.3,577.7l127.4-44.5
			L359.8,396.4z"/>
		<polygon class="st0" points="0,408.6 0,411.4 136.8,481.2 116.7,578.8 0,450.8 0,454.5 116.4,582.3 118.1,584.4 139.6,479.8 		"/>
		<polygon class="st0" points="0,450.8 0,454.5 112.5,578 0,529.1 0,531.9 116.9,582.6 118.3,580.6 		"/>
		<polygon class="st0" points="3000,962.2 2904.6,996.9 2888.8,912.9 3000,911.6 3000,909.1 2885.8,910.4 2902.6,1000.2 3000,964.9
					"/>
		<path class="st0" d="M2905.3,1000.8l-179.7-88l0.6-2.4h162.2L2905.3,1000.8z M2731.6,912.9l170.3,83.4l-15.6-83.4H2731.6z"/>
		<path class="st0" d="M2753.4,1026.4l-0.3-1.1l-28.8-116l183.3,89.8L2753.4,1026.4z M2728.1,914l27.2,109.6l144.3-25.5L2728.1,914z
			"/>
		<path class="st0" d="M2560.6,926.1l3.8-2.5l70.8-125.6l93.6,114.7L2560.6,926.1z M2635.6,802.4l-68,120.6l156.2-12.5L2635.6,802.4
			z"/>
		<path class="st0" d="M2756.2,1027.4l-195.3-103.9l166.3-13.3L2756.2,1027.4z M2569.6,925.4l182.8,97.2L2725.2,913L2569.6,925.4z"
			/>
		<path class="st0" d="M2564.6,926.4l-0.6-1.5l-70-200.4l143,75.2l-70.8,125.6L2564.6,926.4z M2498.5,729.7l67,191.8l68-120.7
			L2498.5,729.7z"/>
		<path class="st0" d="M2567.2,926.3l-198.3-54.9l127.8-146.8L2567.2,926.3z M2373.4,870.1l189.8,52.5l-67.5-193.1L2373.4,870.1z"/>
		<path class="st0" d="M2239,907.8l-2.2-1.5l1.5-1L2495.6,726l1.5,2l-141,111.4L2239,907.8z M2462.6,752.1l-197.2,137.4l89.2-52.1
			L2462.6,752.1z"/>
		<path class="st0" d="M2239.3,907.6l-1-2.2L2495.6,726l1.7,1.9l-125.3,144l-0.4,0.1L2239.3,907.6z M2488.7,733.9l-243,169.3
			l124.8-33.6L2488.7,733.9z"/>
		<path class="st0" d="M2239,907.8l-1.2-0.8v-0.7l5.5-188.2l114,120.6L2239,907.8z M2245.6,724.2l-5.3,179.9l112.9-66L2245.6,724.2z
			"/>
		<path class="st0" d="M2240.2,908.5l-169.3-101.4l174.8-88L2240.2,908.5z M2076.1,807.3l161.7,96.9l5.3-181L2076.1,807.3z"/>
		<path class="st0" d="M1864.8,818.3l1.2-2.3l40.9-188.5l1.3,0.3l341.3,93.5L1864.8,818.3z M1908.7,630.5l-39.9,184.1l370.7-93.5
			L1908.7,630.5z"/>
		<path class="st0" d="M1867.2,817.6l-0.4-2.5l377.3-95.2l0.9,2.3l-171.1,86.2h-0.3L1867.2,817.6z M2233.6,725.2l-354.2,89.4
			l193.8-8.6L2233.6,725.2z"/>
		<path class="st0" d="M1867,819.5l-1-2.7l-66.3-179.2l109.7-10l-0.4,1.7l-40.7,187.5L1867,819.5z M1803.2,639.8l63.6,172.1
			l39.4-181.5L1803.2,639.8z"/>
		<path class="st0" d="M1869.8,820l-65.6-50.3v-0.6l-4-130.4l2.4-0.5L1869.8,820z M1806.7,768.5l57.7,44.3l-61.5-166.4L1806.7,768.5
			z"/>
		<path class="st0" d="M1541.8,749.1l-2.8-1.4l145.7-70.8l116.4-39.4l0.9,2.4L1541.8,749.1z M1768.6,651.1l-83.1,28.1L1583.2,729
			L1768.6,651.1z"/>
		<path class="st0" d="M1806.8,770.5l-265-21.5l-0.4-2.4l261.2-109.7L1806.8,770.5z M1547.1,746.9l257.1,20.8l-4-127.2L1547.1,746.9
			z"/>
		<path class="st0" d="M1544,750.2l-2.2-1.1l-0.7,0.3l-0.3-0.9l-1.8-0.9l1.3-0.6l-66.6-200.3L1687.8,678l-144.4,70.3L1544,750.2z
			 M1478.2,552.5l64.3,193.4l140-68.1L1478.2,552.5z"/>
		<path class="st0" d="M1398,750.9l78-205l67.5,203.1L1398,750.9z M1475.9,553.4l-74.2,194.9l138.4-1.8L1475.9,553.4z"/>
		<path class="st0" d="M1333.5,741.7h-2.1l32.8-181.2l114.6-12.4L1333.5,741.7z M1366.3,562.7L1335,735.4l138.2-184.2L1366.3,562.7z
			"/>
		<path class="st0" d="M1400.7,751l-70.1-9.6L1475,548.9l2.2,1.2L1400.7,751z M1335.2,739.5l63.9,8.8l72.6-190.7L1335.2,739.5z"/>
		<path class="st0" d="M1333.5,743.6l-1.3-2h-0.8l0.2-1l-222.2-327.9l1.7-1.8l255.6,149.9L1334.3,740l1,1.5h-1.3L1333.5,743.6z
			 M1114.5,416l217.7,321.2l31.7-174.9L1114.5,416z"/>
		<path class="st0" d="M1335.7,742.4l-141.4-33l-85.1-297l2.2-1L1335.7,742.4z M1196.2,707.2l133.8,31.2l-216.3-319.2L1196.2,707.2z
			"/>
		<path class="st0" d="M965.4,682.9l-1.3-1l-0.8-0.3h0.1h-0.1l93.4-274.9l55.7,4.2L965.4,682.9z M1058.4,409.4l-88,258.9
			l137.9-255.1L1058.4,409.4z"/>
		<path class="st0" d="M1197,709.8l-234.5-26.7l148.2-274.3L1197,709.8z M966.5,681l227,25.8L1110,415.4L966.5,681z"/>
		<path class="st0" d="M964.3,684l-0.9-1.3l-195-290.5l290.9,14.7l-93.7,275.8L964.3,684z M773.3,395l190.8,284.2l91.7-270
			L773.3,395z"/>
		<path class="st0" d="M963.9,683.1L711.5,534.4l59.1-143.5l1.3,1.9l193.6,288.5L963.9,683.1z M714.7,533.3l245.7,144.8L771.1,396.2
			L714.7,533.3z"/>
		<path class="st0" d="M606.6,515.3l-1-1.2l-0.8-0.3l95.9-222.5l72,102.5L606.6,515.3z M701.2,296.4l-92.3,214.1l160.2-117.3
			L701.2,296.4z"/>
		<path class="st0" d="M713.9,535.3L602.8,515l170.9-125.1L713.9,535.3z M609,513.6l103.3,18.8L768,397.2L609,513.6z"/>
		<path class="st0" d="M605.4,516.7l-0.7-2l-57.2-158.2l1.1-0.5l154.6-64.6L606.8,515L605.4,516.7z M550.7,357.9l55.3,153
			l92.5-214.7L550.7,357.9z"/>
		<path class="st0" d="M397.2,530.6l152.4-175.8l58,160.6L397.2,530.6z M548.7,359.7l-145.6,168l201-14.5L548.7,359.7z"/>
		<path class="st0" d="M366.5,390.5L366,390l-82.7-95.8l266,61.8l-0.1,2.5L366.5,390.5z M290.3,298.4l77.2,89.4L542.8,357
			L290.3,298.4z"/>
		<path class="st0" d="M399.5,531.8l-34-143.6l186.9-32.8L399.5,531.8z M368.6,390.2l32.2,136.2l145.1-167.3L368.6,390.2z"/>
		<path class="st0" d="M371.1,392L77.7,284.3l0.5-2.4l209.3,13.2L371.1,392z M86.7,285l276.2,101.3l-76.6-88.8L86.7,285z"/>
		<path class="st0" d="M137.4,482.2l-0.4-1.3L76.2,281.1l294.4,108L137.4,482.2z M80,285.2l59,193.6l224.5-89.6L80,285.2z"/>
		<polygon class="st0" points="0,274.3 0,276.8 74.2,284 0,328.1 0,331.1 82.1,282.3 		"/>
		<polygon class="st0" points="0,331.1 77.4,285.1 136.1,478 0,408.5 0,411.4 140.3,483 78.8,281.3 0,328.1 		"/>
		<path class="st0" d="M3000,712l-0.5-0.6l-275.2,200l1.7,1.7l202.4-114.5l0.2-0.1l71.4-83.8L3000,712L3000,712z M2927,796.5
			l-182.2,103.1l247.6-180L2927,796.5z"/>
		<path class="st0" d="M3000,711.9l-0.5-0.5l-277.1,201.5H2888l112-197.5V711.9z M2886.6,910.4h-156.5l266.2-193.5L2886.6,910.4z"/>
		<path class="st0" d="M2726,913.2l-1.2-1.2l0.1-0.7l55.5-250.1l149.4,136.5l-1.5,0.9L2726,913.2z M2782,666l-54,243.1l197.6-111.9
			L2782,666z"/>
		<path class="st0" d="M2726.9,914.4L2633.6,800l149.8-140.1L2726.9,914.4z M2637,800.3l88.5,108.5l53.6-241.5L2637,800.3z"/>
		<path class="st0" d="M2635.5,801.7l-142.8-75.1l292.8-65.2L2635.5,801.7z M2499.9,727.6l135.2,71.1L2777,665.9L2499.9,727.6z"/>
		<path class="st0" d="M2352.9,841.9l79.2-264.6l65.7,150.2l-0.8,0.6L2352.9,841.9z M2432.6,584.6l-75,250.4l137.1-108.3
			L2432.6,584.6z"/>
		<path class="st0" d="M2242.6,724.8l0.6-3.8l21.3-161.2l171.2,20.3l-190.5,142.1L2242.6,724.8z M2266.6,562.5l-20.5,155.9
			l183-136.6L2266.6,562.5z"/>
		<path class="st0" d="M2355.8,840.9L2242.6,721l192.1-143.3L2355.8,840.9z M2246.3,721.3L2354.7,836l75.4-251.8L2246.3,721.3z"/>
		<path class="st0" d="M2242.7,724.7l0.4-3.2l-144.4-213.4l168.2,52.2l-0.1,1l-21,159.5l0.3,0.5l-0.4,0.4l-0.4,2.8l-1-1.5
			L2242.7,724.7z M2104.8,512.6l138.8,205.1l20.5-155.7L2104.8,512.6z"/>
		<path class="st0" d="M2247.4,723.3l-342.8-93.8l197.5-120.8L2247.4,723.3z M1910.9,628.5l330.6,90.5l-140.1-207L1910.9,628.5z"/>
		<path class="st0" d="M1801.9,639.8l-0.8-1.2l-0.9-0.1l9.4-98.7l1-0.1l291.1-30.6l0.6,2.4L1801.9,639.8z M1811.9,542.1l-9,94.6
			l290.7-124.2L1811.9,542.1z"/>
		<path class="st0" d="M1801.5,639.9l-0.6-2.4l300.3-128.4l1.1,2.2l-194.2,118.8h-0.3L1801.5,639.9z M2086.3,518.3l-277.1,118.4
			l98.1-9L2086.3,518.3z"/>
		<path class="st0" d="M1801.4,640.5l-0.9-0.9L1639,470l1.4-2l171.6,72.2l-0.1,0.9l-9.3,98.2L1801.4,640.5z M1644.9,472.6
			l155.5,163.2l8.9-94.1L1644.9,472.6z"/>
		<path class="st0" d="M1684.2,679.6l-0.3-1.4L1637.7,465l166,174.2L1684.2,679.6z M1642.1,473.2l44,203.1l113.1-38.2L1642.1,473.2z
			"/>
		<path class="st0" d="M1474.7,551.6v-2l-6-161.6l174.1,81L1474.7,551.6z M1471.4,392.1l5.8,155.6l159.9-78.5L1471.4,392.1z"/>
		<path class="st0" d="M1687,680.6l-213.7-131.1l167.4-82.2L1687,680.6z M1478.6,549.7l204.8,125.6L1639,470.9L1478.6,549.7z"/>
		<path class="st0" d="M1474.8,550l-96.6-279.4l2.2-1.2l90.9,120.2l5.9,160L1474.8,550z M1383.2,277.2l91.2,264l-5.6-150.7
			L1383.2,277.2z"/>
		<path class="st0" d="M1363.9,563l14.2-292.8l2.4-0.3l97.1,280.9L1363.9,563z M1380.3,276.8l-13.8,283.4l107.7-11.6L1380.3,276.8z"
			/>
		<path class="st0" d="M1366.4,563.7L1107.7,412l2-1.1l271-142.9L1366.4,563.7z M1112.9,412.1l251.2,147.3l14-287.1L1112.9,412.1z"
			/>
		<path class="st0" d="M771,394.8l-0.8-2.3L905.4,315l175.3-33.8l0.7,2.4L771,394.8L771,394.8z M906.3,317.4l-122.5,70.2
			l281.4-100.8L906.3,317.4z"/>
		<path class="st0" d="M1058.6,409.4l-287.8-14.5l-0.3-2.4l312.2-111.9L1058.6,409.4z M777.2,392.6l279.3,14.1l22.8-122.4
			L777.2,392.6z"/>
		<path class="st0" d="M770.6,395.2L600,187.8l1.5-2L908.7,316l-135.9,77.9l0.5,0.7l-2.1,0.2L770.6,395.2z M605.2,190.2l166,201.8
			L903,316.4L605.2,190.2z"/>
		<path class="st0" d="M769.9,394.4L600,187.8l1.9-1.7L701.8,293l70.1,99.8L769.9,394.4z M627.1,216.7l123.8,150.6l-51.1-72.8
			L627.1,216.7z"/>
		<path class="st0" d="M550,358.1l-2-1.3l0,0h-0.1v-0.1l51.8-170.1l30.1-69.8l2.3,0.9l-82,240L550,358.1z M619.5,147.2l-17.4,40.3
			l-29.9,98.2L619.5,147.2z"/>
		<path class="st0" d="M547.2,359.4l53.3-174.8L703,294.3L547.2,359.4z M601.6,189.5L551.1,355l147.6-61.6L601.6,189.5z"/>
		<path class="st0" d="M549.7,359.4L309.2,148.9l323.7-33.1L549.7,359.4z M315.2,150.8L548.6,355l80.7-236.3L315.2,150.8z"/>
		<path class="st0" d="M548.9,358.5l-263.4-61.2l25.9-149.8L550,356.3L548.9,358.5z M288.3,295.4l256.2,59.5L313.1,152.3
			L288.3,295.4z"/>
		<path class="st0" d="M77.3,285.1l-0.6-2.2L257.9,29.4l55.9,121L77.3,285.1z M257.5,34.3l-175,244.9l228.1-129.9L257.5,34.3z"/>
		<path class="st0" d="M287.9,297.6L73.8,284.2l240.1-136.7L287.9,297.6z M82.4,282.2L285.8,295l24.7-142.7L82.4,282.2z"/>
		<path class="st0" d="M79.1,283.9l-1-0.7l-1.2,0.3L15.7,65l244.7-34.8L79.1,283.9z M18.9,67.1l59.8,213.2L255,33.5L18.9,67.1z"/>
		<polygon class="st0" points="0,212 17.7,72.3 76.4,281.7 0,274.3 0,276.8 79.8,284.6 18.5,65.7 16,65.9 0,192.1 		"/>
		<path class="st1" d="M2386.6,1462.8c3.2,0.8,6.5-1.2,7.3-4.4s-1.2-6.5-4.4-7.3s-6.5,1.2-7.3,4.4l0,0
			C2381.5,1458.7,2383.4,1462,2386.6,1462.8z"/>
		<path class="st1" d="M1995,1392.3c11,2.7,22.1-4.1,24.8-15c0,0,0,0,0-0.1l0,0c2.7-11-4-22.1-15-24.8c-11-2.7-22.1,4-24.8,15.1l0,0
			l0,0C1977.2,1378.5,1984,1389.6,1995,1392.3z"/>
		<path class="st0" d="M1581.1,1347.6c0.5,0.1,1.1,0.2,1.6,0.1c3-0.2,5.3-2.8,5.1-5.8c-0.1-2.4-1.8-4.4-4.2-5
			c-0.5-0.1-1.1-0.2-1.6-0.1c-2.4,0.1-4.4,1.8-4.9,4.1C1576.4,1344,1578.2,1346.9,1581.1,1347.6z"/>
		<path class="st1" d="M1336,1304.7c1.4,0.9,3,1.6,4.6,2c8.3,2.1,16.8-2.9,18.9-11.2c2.1-8.3-2.9-16.8-11.2-18.9
			c-8.3-2.1-16.8,2.9-18.9,11.2C1327.7,1294.2,1330.4,1301,1336,1304.7z"/>
		<path class="st1" d="M1036.6,1218.4L1036.6,1218.4L1036.6,1218.4c4.3,1,8.6-1.6,9.7-5.9c1-4.3-1.6-8.6-5.9-9.7l0,0
			c-4.3-1-8.6,1.6-9.7,5.9S1032.2,1217.3,1036.6,1218.4L1036.6,1218.4z"/>
		<path class="st1" d="M587.5,1106.2c-2-0.5-4.1-0.5-6.1,0c-6.7,1.7-10.7,8.5-9.1,15.2c1.7,6.7,8.5,10.7,15.2,9.1s10.7-8.5,9.1-15.2
			C595.5,1110.8,592,1107.3,587.5,1106.2z"/>
		<path class="st1" d="M240.1,989.8c-1.4,5.7,2.1,11.5,7.8,12.9l0,0c2.4,0.6,4.9,0.3,7.1-0.8c5.3-2.6,7.5-8.9,4.9-14.2
			c-1.4-2.8-3.9-4.9-7-5.7C247.3,980.6,241.6,984.1,240.1,989.8L240.1,989.8z"/>
		<path class="st1" d="M10.2,877.7c-0.5-3.2-2.9-5.7-6-6.5c-1.4-0.3-2.9-0.3-4.2,0.1v15.3c0.1,0.1,0.3,0.1,0.5,0.1
			c4.3,1,8.6-1.6,9.6-5.9C10.3,879.8,10.4,878.7,10.2,877.7L10.2,877.7z"/>
		<path class="st1" d="M2786.8,1432.2c-1.2-0.3-2.5-0.4-3.8-0.2c-5.2,0.9-8.7,5.8-7.8,11c0.6,3.7,3.4,6.8,7.1,7.7
			c1.2,0.3,2.5,0.4,3.8,0.2c5.2-0.9,8.7-5.8,7.8-11C2793.3,1436.2,2790.5,1433.1,2786.8,1432.2z"/>
		<path class="st0" d="M2683,1367.3c1.4-5.9-2.1-11.8-8-13.2s-11.8,2.1-13.2,8s2.1,11.8,8,13.2l0,0
			C2675.7,1376.7,2681.5,1373.2,2683,1367.3z"/>
		<path class="st2" d="M2473.5,1371c-4.8-1.2-9.6,1.8-10.8,6.6l0,0c-1.2,4.8,1.7,9.6,6.5,10.8l0,0c4.9,0.7,9.5-2.7,10.2-7.7
			C2480.1,1376.5,2477.6,1372.4,2473.5,1371L2473.5,1371z"/>
		<path class="st1" d="M2380.6,1262.7c-1.5,6,2.2,12,8.2,13.5s12-2.2,13.5-8.2s-2.2-12-8.2-13.5
			C2388.1,1253.1,2382.1,1256.8,2380.6,1262.7z"/>
		<path class="st3" d="M2196.5,1341.9c4.4,2.5,10,0.9,12.5-3.5c2.4-4.2,1-9.6-3.1-12.2c-0.8-0.5-1.6-0.8-2.5-1
			c-4.9-1.2-9.9,1.8-11.1,6.7C2191.3,1335.8,2193,1339.9,2196.5,1341.9L2196.5,1341.9z"/>
		<path class="st2" d="M1962.3,1262.4c9.4,2.3,18.9-3.4,21.2-12.8c2.3-9.4-3.4-18.9-12.8-21.2c-9.4-2.3-18.9,3.4-21.2,12.8l0,0
			c-2.3,9.4,3.4,18.8,12.7,21.2C1962.2,1262.4,1962.2,1262.4,1962.3,1262.4z"/>
		<path class="st0" d="M1921.4,1138.2L1921.4,1138.2c3.3,0.4,6.3-2,6.6-5.3c0.3-2.7-1.3-5.3-3.8-6.3l0,0c-3.3-0.4-6.3,2-6.6,5.3
			C1917.3,1134.6,1918.8,1137.2,1921.4,1138.2z"/>
		<path class="st0" d="M1760.8,1082.4c5.3,1.3,10.7-1.9,12-7.3c1.3-5.3-1.9-10.7-7.3-12c-5.3-1.3-10.7,1.9-12,7.3l0,0
			C1752.2,1075.7,1755.5,1081.1,1760.8,1082.4L1760.8,1082.4z"/>
		<path class="st4" d="M1453,1112.9c8.3,2,16.7-3.1,18.8-11.4l0,0c2-8.3-3.1-16.7-11.4-18.8s-16.7,3.1-18.8,11.4l0,0
			C1439.6,1102.4,1444.7,1110.9,1453,1112.9z"/>
		<path class="st1" d="M1479.6,1005.6c-8.6-2.1-17.2,3.1-19.4,11.7c-2.1,8.6,3.1,17.2,11.7,19.4c8.6,2.1,17.2-3.1,19.3-11.7
			C1493.4,1016.4,1488.2,1007.7,1479.6,1005.6L1479.6,1005.6z"/>
		<path class="st1" d="M1240.1,1048.2c0.6,0.3,1.2,0.5,1.8,0.6c5.1,1.2,10.3-1.9,11.6-7.1c1.1-4.5-1.2-9.2-5.5-11
			c-0.5-0.2-1-0.4-1.6-0.6c-5.2-1.2-10.3,2.1-11.5,7.2C1234,1041.8,1236.1,1046.2,1240.1,1048.2L1240.1,1048.2z"/>
		<path class="st4" d="M1120.4,983.2c-4.2-1-8.4,1.5-9.4,5.7s1.5,8.4,5.7,9.4s8.4-1.5,9.4-5.7l0,0
			C1127.2,988.4,1124.6,984.2,1120.4,983.2z"/>
		<path class="st1" d="M863.9,912.7c1.6,2.2,4,3.8,6.7,4.5c6.4,1.6,12.9-2.3,14.5-8.8c1.6-6.4-2.3-12.9-8.8-14.5s-12.9,2.3-14.5,8.8
			C861,906.1,861.8,909.8,863.9,912.7z"/>
		<path class="st1" d="M648.7,820.3c1.2-4.8-1.8-9.7-6.7-10.8s-9.7,1.8-10.8,6.7c-1.2,4.8,1.8,9.7,6.7,10.8l0,0
			C642.7,828.1,647.5,825.2,648.7,820.3z"/>
		<path class="st4" d="M544.3,826.1c-0.8,3.4,0.5,6.9,3.2,9c0.9,0.7,2,1.2,3.1,1.5c4.7,1.1,9.3-1.8,10.4-6.4
			c0.8-3.4-0.5-6.9-3.2-8.9c-0.9-0.7-2-1.2-3.1-1.5C550.1,818.6,545.5,821.4,544.3,826.1L544.3,826.1z"/>
		<path class="st1" d="M404.2,801.6c3.7,0.9,7.5-1.3,8.4-5s-1.3-7.5-5-8.4s-7.5,1.3-8.4,5c0,0,0,0,0,0.1
			C398.3,796.9,400.5,800.7,404.2,801.6z"/>
		<path class="st0" d="M200.4,770.6c-3.9-6.4-12.2-8.4-18.5-4.5c-6.4,3.9-8.4,12.2-4.5,18.5c3.9,6.4,12.2,8.4,18.5,4.5
			c3.1-1.9,5.2-4.9,6.1-8.3C202.8,777.3,202.2,773.7,200.4,770.6z"/>
		<path class="st1" d="M0,757.2v27.9c4.9-1.5,8.6-5.5,9.8-10.5C11.6,767.1,7.3,759.5,0,757.2z"/>
		<path class="st4" d="M2955.4,1220.2c6.2,1.5,12.5-2.2,14-8.5s-2.2-12.5-8.5-14s-12.5,2.2-14,8.5l0,0
			C2945.3,1212.4,2949.1,1218.7,2955.4,1220.2C2955.3,1220.2,2955.3,1220.2,2955.4,1220.2z"/>
		<path class="st0" d="M2725.5,1164.7c-8.7-2.2-17.5,3.2-19.7,11.9s3.2,17.5,11.9,19.7s17.5-3.2,19.7-11.9c0.9-3.7,0.5-7.5-1.1-11
			C2734.2,1169,2730.2,1165.8,2725.5,1164.7z"/>
		<path class="st4" d="M2615.5,1251.3c3.9,1,7.9-1.4,8.9-5.4c1-3.9-1.4-7.9-5.4-8.9c-3.9-1-7.9,1.4-8.9,5.4l0,0
			C2609.1,1246.4,2611.5,1250.3,2615.5,1251.3C2615.4,1251.3,2615.5,1251.3,2615.5,1251.3z"/>
		<path class="st0" d="M2354.1,1137.8c0.6,0.3,1.2,0.5,1.8,0.6c5,1.2,10-1.9,11.2-6.9c1-4.3-1.1-8.7-5.1-10.6
			c-0.6-0.3-1.2-0.5-1.8-0.6c-5-1.2-10,1.9-11.2,6.9C2348,1131.5,2350.1,1135.9,2354.1,1137.8L2354.1,1137.8z"/>
		<path class="st0" d="M2296.6,1095.5c-4-1-8,1.5-9,5.4s1.5,8,5.4,9s8-1.5,9-5.4l0,0C2303.1,1100.5,2300.7,1096.5,2296.6,1095.5
			C2296.7,1095.5,2296.7,1095.5,2296.6,1095.5z"/>
		<path class="st1" d="M2100.3,1077.7c8.7,2.1,17.6-3.2,19.7-11.9c2.1-8.7-3.2-17.6-11.9-19.7s-17.6,3.2-19.7,11.9
			c-0.5,2.1-0.6,4.3-0.3,6.5C2089.2,1070.9,2094,1076.2,2100.3,1077.7z"/>
		<path class="st3" d="M1893.2,1102.8c7,1.7,14.1-2.5,15.9-9.6c1.7-7-2.5-14.1-9.6-15.9c-7-1.7-14.1,2.5-15.9,9.6l0,0
			C1881.9,1094,1886.2,1101,1893.2,1102.8L1893.2,1102.8z"/>
		<path class="st4" d="M1722.7,908.9c-1.1-0.3-2.2-0.3-3.3,0c-2.4,0.6-4.3,2.6-4.9,5c-0.9,3.7,1.4,7.3,5,8.2c1.1,0.3,2.2,0.3,3.3,0
			c3.6-1,5.8-4.7,4.8-8.3C1727.1,911.4,1725.2,909.6,1722.7,908.9L1722.7,908.9z"/>
		<path class="st0" d="M1581.8,868.9c3.2,0.8,6.5-1.1,7.3-4.3s-1.1-6.5-4.3-7.3s-6.5,1.1-7.3,4.3v0.1
			C1576.7,864.9,1578.6,868.1,1581.8,868.9L1581.8,868.9z"/>
		<path class="st4" d="M1402.8,837.6L1402.8,837.6c-5.7-1.4-11.5,2.1-12.9,7.9c-1.4,5.7,2.1,11.5,7.9,12.9l0,0l0,0
			c5.8,1.2,11.5-2.5,12.7-8.2C1411.6,844.6,1408.2,839.1,1402.8,837.6L1402.8,837.6z"/>
		<path class="st3" d="M1241.4,821c-1.5,6.4,2.4,12.8,8.7,14.3c6.4,1.5,12.8-2.4,14.3-8.7c1.5-6.4-2.4-12.8-8.7-14.3
			C1249.4,810.7,1243,814.6,1241.4,821z"/>
		<path class="st1" d="M1125.5,903.7c2.9,0.7,5.9-1.1,6.6-4l0,0c0.7-2.9-1.1-5.9-4-6.6c-2.9-0.7-5.9,1.1-6.6,4
			C1120.8,900.1,1122.6,903,1125.5,903.7z"/>
		<path class="st4" d="M951.3,714.1c6.6,1.6,13.2-2.5,14.8-9c0.6-2.6,0.4-5.3-0.7-7.7c0.2,0,0.4-0.1,0.5-0.1
			c6.6-1.7,10.6-8.4,8.9-15s-8.4-10.6-15-8.9c-6.6,1.7-10.6,8.4-8.9,15c0.2,0.6,0.4,1.2,0.6,1.8c-6.6,1.4-10.9,7.9-9.5,14.6
			C943.1,709.4,946.6,713,951.3,714.1L951.3,714.1z"/>
		<path class="st2" d="M716.6,635.9c-0.3,0.5-0.6,1-0.7,1.5c-0.6,2.3,0.9,4.6,3.2,5.2c2.3,0.6,4.6-0.8,5.2-3.2
			c0.6-2.3-0.8-4.6-3.2-5.2C719.4,633.9,717.7,634.5,716.6,635.9z"/>
		<path class="st0" d="M629,736.4c6.6,1.6,13.2-2.4,14.7-9c1.6-6.6-2.4-13.2-9-14.7c-6.5-1.6-13.1,2.4-14.7,9
			C618.4,728.2,622.4,734.8,629,736.4L629,736.4z"/>
		<path class="st0" d="M446.6,754.3c7,1.7,14.1-2.6,15.8-9.7l0,0l0,0c2-6.9-1.9-14.2-8.9-16.3c-6.9-2-14.2,1.9-16.3,8.9
			c-0.1,0.4-0.2,0.8-0.3,1.2l0,0C435.3,745.5,439.6,752.6,446.6,754.3z"/>
		<path class="st4" d="M244.1,532.3c-1.1,4.6,1.7,9.3,6.3,10.4c4.6,1.1,9.3-1.7,10.4-6.3s-1.7-9.2-6.3-10.4
			C249.9,524.8,245.2,527.7,244.1,532.3z"/>
		<path class="st1" d="M121.6,572.6c-0.6-0.3-1.2-0.5-1.9-0.7c-5.2-1.3-10.5,2-11.8,7.2s2,10.5,7.2,11.8s10.5-2,11.8-7.2
			C128,579.3,125.8,574.6,121.6,572.6z"/>
		<path class="st0" d="M2894.6,996.3c-1.2,5,1.8,10,6.8,11.2l0,0c5,0.9,9.9-2.5,10.8-7.5c0.8-4.6-1.9-9.1-6.4-10.5l0,0
			C2900.8,988.4,2895.8,991.4,2894.6,996.3z"/>
		<path class="st0" d="M2749.7,1043.8c10.4,2.6,20.9-3.8,23.4-14.2c2.6-10.4-3.8-20.9-14.2-23.4s-20.9,3.8-23.4,14.2l0,0
			C2733,1030.7,2739.3,1041.2,2749.7,1043.8L2749.7,1043.8z"/>
		<path class="st2" d="M2563.4,932.2c1.8,0.4,3.7,0.2,5.4-0.6c4-1.9,5.7-6.7,3.8-10.7c-1-2.2-3-3.8-5.4-4.3
			c-1.8-0.4-3.7-0.2-5.3,0.6c-4,1.9-5.7,6.7-3.8,10.7C2559.1,930.1,2561,931.7,2563.4,932.2L2563.4,932.2z"/>
		<path class="st0" d="M2361.1,868.3c-1.4,5.6,2.1,11.2,7.7,12.6c5.6,1.4,11.2-2.1,12.6-7.7c1.4-5.6-2.1-11.2-7.7-12.6
			C2368.1,859.3,2362.4,862.7,2361.1,868.3z"/>
		<path class="st0" d="M2494.8,733.3L2494.8,733.3c3.4,0.8,6.9-1.3,7.7-4.7s-1.3-6.9-4.7-7.7l0,0c-3.5-0.7-6.8,1.6-7.5,5.1
			C2489.6,729.2,2491.6,732.4,2494.8,733.3L2494.8,733.3z"/>
		<path class="st4" d="M2230.8,915.4c1.5,1.4,3.3,2.3,5.3,2.8c6.6,1.6,13.2-2.4,14.8-9c1.1-4.4-0.4-9-3.7-12
			c-1.5-1.4-3.3-2.3-5.3-2.8c-6.6-1.6-13.2,2.4-14.8,9C2226.1,907.8,2227.5,912.4,2230.8,915.4z"/>
		<path class="st0" d="M2071.3,816.2c5,1.2,10-1.8,11.2-6.8s-1.8-10-6.8-11.2s-10,1.8-11.2,6.8l0,0c-1.2,4.9,1.7,9.9,6.7,11.2
			C2071.3,816.2,2071.3,816.2,2071.3,816.2z"/>
		<path class="st3" d="M1869.7,806c-5.7-1.4-11.4,2.1-12.8,7.8l0,0l0,0l0,0c-1.6,5.7,1.7,11.5,7.4,13.1c5.7,1.6,11.5-1.7,13.1-7.4
			c0.1-0.2,0.1-0.5,0.2-0.7l0,0C1878.8,813.1,1875.3,807.4,1869.7,806z"/>
		<path class="st1" d="M1803.2,778.4c5.1,1.3,10.3-1.9,11.6-7c1.3-5.1-1.9-10.3-7-11.6s-10.3,1.9-11.6,7l0,0
			C1794.9,771.9,1798.1,777.1,1803.2,778.4L1803.2,778.4z"/>
		<path class="st4" d="M1540.6,752.7L1540.6,752.7c2.8,0.5,5.5-1.4,5.9-4.2c0.4-2.5-1.1-5-3.5-5.8l0,0c-2.8-0.5-5.5,1.4-5.9,4.2
			C1536.7,749.5,1538.2,751.9,1540.6,752.7z"/>
		<path class="st1" d="M1407.5,751.5c1-4.2-1.6-8.5-5.8-9.5c-4.2-1-8.5,1.6-9.5,5.8s1.6,8.5,5.8,9.5l0,0
			C1402.2,758.3,1406.5,755.7,1407.5,751.5z"/>
		<path class="st1" d="M1332.1,727.7c-7,0.5-12.3,6.5-11.8,13.5c0.4,5.5,4.3,10.2,9.6,11.5l0,0c6.8,1.6,13.7-2.6,15.3-9.4
			c1.6-6.8-2.5-13.5-9.3-15.2C1334.6,727.8,1333.3,727.6,1332.1,727.7z"/>
		<path class="st4" d="M1190.4,728.2c11,2.7,22.1-4,24.9-15s-4-22.1-15-24.9c-11-2.7-22.1,4-24.9,15c0,0,0,0,0,0.1
			C1172.7,714.4,1179.4,725.5,1190.4,728.2L1190.4,728.2z"/>
		<path class="st1" d="M1103.8,439.2c15,3.7,30.1-5.5,33.8-20.4c3.7-15-5.5-30.1-20.4-33.8c-15-3.7-30.1,5.5-33.8,20.4
			c-1.3,5.4-1,11.1,0.9,16.4C1087.4,430.4,1094.7,437,1103.8,439.2z"/>
		<path class="st0" d="M710,546.8c7.1,1.8,14.3-2.6,16.1-9.7s-2.6-14.3-9.7-16.1s-14.3,2.6-16.1,9.7l0,0c-1.8,7.1,2.5,14.3,9.6,16
			C709.9,546.8,710,546.8,710,546.8z"/>
		<path class="st4" d="M604.3,521c2.7,0.7,5.5-0.4,7.1-2.6c0.6-0.7,0.9-1.6,1.2-2.5c0.9-3.7-1.3-7.4-5-8.3c-2.2-0.6-4.6,0-6.3,1.6
			c-1,0.9-1.7,2.1-2,3.5C598.3,516.4,600.6,520.1,604.3,521L604.3,521z"/>
		<path class="st4" d="M396.8,543c7.7,1.9,15.5-2.8,17.4-10.5s-2.8-15.5-10.5-17.4s-15.5,2.8-17.4,10.5l0,0
			C384.4,533.3,389,541.1,396.8,543C396.7,543,396.7,543,396.8,543z"/>
		<path class="st4" d="M364.4,399.9c5.9,1.4,11.9-2.2,13.3-8.1s-2.2-11.9-8.1-13.3s-11.8,2.2-13.3,8l0,0
			C354.9,392.5,358.5,398.4,364.4,399.9L364.4,399.9z"/>
		<path class="st1" d="M135.8,490.2c5.4,1.3,10.8-2,12.1-7.3s-2-10.8-7.3-12.1c-5.4-1.3-10.8,2-12.1,7.3
			C127.2,483.5,130.5,488.9,135.8,490.2L135.8,490.2z"/>
		<path class="st3" d="M2883.7,926.5c8.2,2,16.5-3,18.5-11.2s-3-16.5-11.2-18.5s-16.5,3-18.5,11.2l0,0
			C2870.5,916.2,2875.5,924.5,2883.7,926.5L2883.7,926.5z"/>
		<path class="st3" d="M3000,701.1c-6.3,0.1-11.3,5.3-11.2,11.6c0.1,5.2,3.7,9.6,8.7,10.9c0.8,0.2,1.7,0.3,2.5,0.3V701.1z"/>
		<path class="st2" d="M2729,899.9L2729,899.9c-6.5-1.6-13,2.4-14.5,8.9s2.4,13,8.9,14.5l0,0c6.5,1.6,13-2.4,14.5-8.9
			S2735.5,901.5,2729,899.9L2729,899.9z"/>
		<path class="st4" d="M2924.5,810.9c7.4,1.8,14.9-2.7,16.7-10.1s-2.7-14.9-10.1-16.7c-7.4-1.8-14.9,2.7-16.7,10.1l0,0
			C2912.6,801.6,2917.1,809.1,2924.5,810.9L2924.5,810.9z"/>
		<path class="st4" d="M2632,813.9c7.6,1.9,15.2-2.8,17.1-10.3c1.9-7.6-2.8-15.2-10.3-17.1c-7.6-1.9-15.2,2.8-17.1,10.3l0,0
			C2619.8,804.4,2624.4,812,2632,813.9L2632,813.9z"/>
		<path class="st2" d="M2776.6,682.9c10.6,2.6,21.4-3.9,24-14.5s-3.9-21.4-14.5-24s-21.4,3.9-24,14.5s3.8,21.3,14.4,24
			C2776.5,682.9,2776.5,682.9,2776.6,682.9z"/>
		<path class="st0" d="M2352.3,850.6c6.7,1.6,13.5-2.5,15.1-9.2s-2.5-13.5-9.2-15.1s-13.5,2.5-15.1,9.2l0,0
			C2341.5,842.2,2345.6,848.9,2352.3,850.6L2352.3,850.6z"/>
		<path class="st4" d="M2430,590.8c5.4,1.3,10.9-2,12.3-7.4c1.3-5.4-2-10.9-7.4-12.3c-5.4-1.3-10.9,2-12.3,7.4l0,0
			C2421.3,584,2424.6,589.4,2430,590.8L2430,590.8z"/>
		<path class="st0" d="M2262.8,572.3c6.1,1.5,12.4-2.2,13.9-8.4c1.5-6.1-2.2-12.4-8.4-13.9c-6.1-1.5-12.4,2.2-13.9,8.4l0,0
			C2252.9,564.5,2256.7,570.7,2262.8,572.3L2262.8,572.3z"/>
		<path class="st4" d="M2238.6,719.1c-0.1,0.2-0.1,0.4-0.2,0.6c-0.8,3.4,1.3,6.7,4.6,7.5c3.1,0.7,6.2-1,7.3-3.9
			c0.1-0.2,0.1-0.4,0.2-0.6c0.8-3.3-1.2-6.7-4.6-7.6C2242.8,714.3,2239.6,716,2238.6,719.1L2238.6,719.1z"/>
		<path class="st1" d="M1906,636.5c4.2,1,8.4-1.5,9.4-5.7s-1.5-8.4-5.7-9.4s-8.4,1.5-9.4,5.7l0,0
			C1899.3,631.3,1901.8,635.4,1906,636.5L1906,636.5z"/>
		<path class="st0" d="M2099.7,518.9c4.7,1.2,9.6-1.7,10.7-6.5c1.2-4.7-1.7-9.6-6.5-10.7c-4.7-1.2-9.6,1.7-10.7,6.5l0,0
			C2092,513,2094.9,517.8,2099.7,518.9z"/>
		<path class="st0" d="M1791.2,629.3c-1.6,1.7-2.7,3.8-3.2,6c-1.8,7.4,2.7,14.9,10.1,16.8c5,1.2,10.2-0.4,13.6-4.2
			c1.6-1.7,2.7-3.8,3.2-6c1.8-7.4-2.7-14.9-10.1-16.8C1799.8,624,1794.6,625.6,1791.2,629.3L1791.2,629.3z"/>
		<path class="st4" d="M1808.6,549.8c4.9,1.2,9.8-1.8,11-6.6c1.2-4.9-1.8-9.8-6.6-11c-4.9-1.2-9.8,1.8-11,6.6
			S1803.7,548.5,1808.6,549.8C1808.5,549.7,1808.5,549.7,1808.6,549.8z"/>
		<path class="st2" d="M1683,687c5,1.2,10.1-1.8,11.3-6.8c1.2-5-1.8-10.1-6.8-11.3s-10.1,1.8-11.3,6.8l0,0
			C1674.9,680.7,1678,685.8,1683,687L1683,687z"/>
		<path class="st2" d="M1636,485.2c8.9,2.2,17.9-3.2,20.1-12.2s-3.2-17.9-12.2-20.1s-17.9,3.2-20.1,12.2l0,0
			c-2.2,8.9,3.2,17.8,12,20C1635.9,485.2,1636,485.2,1636,485.2z"/>
		<path class="st1" d="M1468,398.7c4.7,1.2,9.5-1.7,10.7-6.5s-1.7-9.5-6.5-10.7s-9.5,1.7-10.7,6.5l0,0
			C1460.4,392.7,1463.2,397.5,1468,398.7L1468,398.7z"/>
		<path class="st4" d="M1473.2,560.9c6.2,1.5,12.5-2.3,14-8.5l0,0c1.5-6.2-2.3-12.5-8.5-14s-12.5,2.3-14,8.5l0,0l0,0
			C1463.1,553.1,1467,559.4,1473.2,560.9L1473.2,560.9z"/>
		<path class="st1" d="M1363.3,569.5c4.4,1.1,8.8-1.6,9.9-6s-1.6-8.8-6-9.9c-4.4-1.1-8.8,1.6-9.9,6l0,0
			C1356.2,564,1358.9,568.4,1363.3,569.5L1363.3,569.5z"/>
		<path class="st0" d="M1374.4,290.7c11.3,2.8,22.8-4.1,25.5-15.5c2.8-11.3-4.1-22.8-15.5-25.5c-11.3-2.8-22.8,4.1-25.5,15.5l0,0
			C1356.1,276.5,1363,287.9,1374.4,290.7L1374.4,290.7z"/>
		<path class="st1" d="M1051.3,406.5c-0.8,3.5,1.3,6.9,4.7,7.8c3.5,0.8,6.9-1.3,7.8-4.7s-1.3-6.9-4.7-7.8l0,0
			C1055.6,401,1052.2,403.1,1051.3,406.5z"/>
		<path class="st3" d="M1077.9,295.3c7.1,1.7,14.2-2.6,16-9.7s-2.6-14.2-9.7-16c-7.1-1.7-14.2,2.6-16,9.7l0,0
			C1066.5,286.4,1070.8,293.5,1077.9,295.3C1077.8,295.2,1077.9,295.3,1077.9,295.3z"/>
		<path class="st2" d="M767.7,406.6c7.1,1.8,14.4-2.6,16.1-9.7v-0.1c1.7-7.2-2.7-14.4-9.8-16.1c-7.2-1.7-14.4,2.7-16.1,9.8
			C756.1,397.6,760.5,404.8,767.7,406.6z"/>
		<path class="st2" d="M903.6,325.5c5.2,1.3,10.4-1.8,11.7-7s-1.8-10.4-7-11.7c-5.2-1.3-10.4,1.8-11.7,7c0,0,0,0,0,0.1
			C895.3,319.1,898.4,324.3,903.6,325.5L903.6,325.5z"/>
		<path class="st1" d="M698.2,305c6.2,1.5,12.4-2.3,13.9-8.4s-2.3-12.4-8.4-13.9s-12.4,2.3-13.9,8.4l0,0
			C688.2,297.3,692,303.5,698.2,305C698.1,305,698.1,305,698.2,305z"/>
		<path class="st4" d="M598,199.4c6.8,1.7,13.7-2.5,15.4-9.3s-2.5-13.7-9.3-15.4s-13.7,2.5-15.4,9.3l0,0
			C587,190.8,591.2,197.7,598,199.4L598,199.4z"/>
		<path class="st1" d="M545.1,374c9.2,2.2,18.5-3.4,20.7-12.6c0,0,0,0,0-0.1c2.2-9.2-3.4-18.5-12.7-20.7
			c-9.2-2.2-18.5,3.4-20.7,12.7C530.2,362.5,535.9,371.8,545.1,374z"/>
		<path class="st4" d="M626.4,136.5c10.6,2.6,21.3-3.8,23.9-14.4s-3.8-21.3-14.4-23.9c-10.6-2.6-21.3,3.8-23.9,14.4c0,0,0,0,0,0.1
			C609.4,123.2,615.8,133.9,626.4,136.5L626.4,136.5z"/>
		<path class="st1" d="M271.6,292.6c-2,8.4,3.2,16.9,11.6,18.9s16.9-3.2,18.9-11.6S299,283,290.5,281
			C282.2,279,273.7,284.2,271.6,292.6z"/>
		<path class="st3" d="M308.9,163.8c7.7,1.9,15.4-2.8,17.3-10.5s-2.8-15.4-10.5-17.3c-7.7-1.9-15.4,2.8-17.3,10.5l0,0
			C296.5,154.1,301.1,161.9,308.9,163.8C308.8,163.8,308.8,163.8,308.9,163.8z"/>
		<path class="st3" d="M255,43c6.2,1.5,12.4-2.2,13.9-8.4s-2.2-12.4-8.4-13.9c-6.2-1.5-12.4,2.2-13.9,8.4l0,0
			C245,35.2,248.8,41.5,255,43L255,43z"/>
		<path class="st3" d="M0,262.2v24.9c2.9-2.2,4.9-5.3,5.8-8.8C7.3,272.3,5,265.9,0,262.2z"/>
		<path class="st4" d="M22.1,46C13.6,43.9,4.7,47.6,0,55v22.1c6,9.5,18.7,12.4,28.2,6.4c4.5-2.9,7.7-7.4,9-12.5
			C39.9,59.9,33.2,48.7,22.1,46z"/>
		<path class="st3" d="M75.3,294.9c6.5,1.6,13-2.4,14.6-8.8c1.6-6.5-2.4-13-8.8-14.6c-6.5-1.6-13,2.4-14.6,8.8c-0.5,2-0.5,4,0,6
			C67.6,290.5,71,293.9,75.3,294.9z"/>
		<polygon class="st0" points="0,303.7 0,308 45.8,245.9 69.9,459.2 0,432.9 0,435.6 72.9,463 48,242.9 49.2,241.3 47.8,241.3
			47.6,239.3 46.1,241.3 45.3,241.3 45.4,242.2 		"/>
		<path class="st0" d="M70.3,462.8l-25-221.5H47l0.3,0.2L294,390.2L70.3,462.8z M48.2,244.9l24.3,214.5l215.5-70L48.2,244.9z"/>
		<path class="st0" d="M412.9,498.7L289.3,390l72.5-109.6l1.2,0.7l1.1-0.2L412.9,498.7z M292.6,389.6l116.1,102.1l-46.5-207.4
			L292.6,389.6z"/>
		<path class="st0" d="M410,497.2L361.5,281l0.7-1.4l1,0.4l243.5,86.7L410,497.2z M364.5,283.1l47.1,210l189.5-125.8L364.5,283.1z"
			/>
		<path class="st0" d="M891.3,403.3l-292-35.6L818.1,268L891.3,403.3z M608.5,366.3l278.3,33.9L817,271.3L608.5,366.3z"/>
		<path class="st0" d="M967.2,516.3l-79.1-113.9l-71.6-132.2l2.2-1.3l-0.7,0.4l0.7-0.4l0,0l150.6,246L967.2,516.3z M841.2,310.6
			l49,90.6l54.2,78L841.2,310.6z"/>
		<path class="st0" d="M1162.8,539.9l-197.3-23.4l1.8-1.8l322.1-326.4l2.8-0.9l-0.9,2.5L1162.8,539.9z M970.9,514.7l190.2,22.5
			L1287,194.4L970.9,514.7z"/>
		<path class="st0" d="M1159.8,540.6L1289.7,187l208.6,240.9L1159.8,540.6z M1290.6,191.9L1164,536.5l330-109.9L1290.6,191.9z"/>
		<path class="st0" d="M1496.8,518l-2.5-0.3l0.7-90.8l72.6-246.1l0.3-1.4l2.4,1l-0.3,1.1l-1-0.2l1,0.3L1496.8,518z M1497.4,427.5
			l-0.5,78.2l63.3-290.9L1497.4,427.5z"/>
		<path class="st0" d="M1493.8,519.6l0.5-2.2l73.5-338l1.7,0.7l0.2,0.3L1750.3,435L1493.8,519.6z M1569.4,184.2l-72.2,331.6
			l249-82.2L1569.4,184.2z"/>
		<path class="st0" d="M1902.3,455.8L1746,435.2l183.7-247.8l0.1-0.8h0.5l2.4-3.2l-0.3,3.2h1.1l-1.3,1.8L1902.3,455.8z
			 M1750.5,433.3l149.5,19.6l29.1-260.5L1750.5,433.3z"/>
		<path class="st0" d="M2200,484.1l-300.2-28.6l30-268.8h1.7l0.4,0.4L2200,484.1z M1902.6,453.2l291.2,27.8l-261.9-290.1
			L1902.6,453.2z"/>
		<path class="st0" d="M2481.6,517.5l-287.2-34l265.8-317.6l1.7-0.8l0.1,1.9L2481.6,517.5z M2199.3,481.5l279.6,33.1l-19.3-344.3
			L2199.3,481.5z"/>
		<path class="st0" d="M2479.1,517.8l-0.1-1.7l-19.5-348.8l-0.3-0.9l2.7-1.3l0.1,1.7L2576.3,482L2479.1,517.8z M2462.5,175.5
			l18.9,338.8l91.6-33.8L2462.5,175.5z"/>
		<path class="st0" d="M2571.3,482.5l294.4-267.2v0.1l1.9,1.4l-119.8,262.7L2571.3,482.5z M2862.9,221.3L2578,479.9l168.2-2.9
			L2862.9,221.3z"/>
		<path class="st0" d="M2744.9,479.9l1-2.1l119.6-262.2l1.4-1l0.7,1.2L2995,439.5L2744.9,479.9z M2866.7,219.1l-117.5,257.6
			l241.9-39.2L2866.7,219.1z"/>
		<polygon class="st0" points="3000,435.7 2997.4,436.3 3000,433.9 3000,430.5 2988.8,440.6 3000,438.3 		"/>
		<polygon class="st0" points="0,547.8 0,553.2 64.4,678.6 0,686.3 0,688.9 68.3,680.6 		"/>
		<polygon class="st0" points="0,432.9 0,435.6 70.1,462 65.3,674.6 0,547.8 0,553.2 65.3,680.2 67.7,679.6 72.6,461.2 72.7,460.3
					"/>
		<path class="st0" d="M67.3,680.5l-1.9-1.7L291,387.7l1.4,2.1l-0.5,0.7L166.3,581.1L67.3,680.5z M271.9,416.5L79.8,664.4l84.7-85
			L271.9,416.5z"/>
		<path class="st0" d="M65.1,683.4l5.1-223.1l224.3-72.9L65.1,683.4z M72.6,462.1l-4.9,213.8l219.7-283.6L72.6,462.1z"/>
		<path class="st0" d="M487.8,639.3l-324.5-58.1l126.6-192l1,0.7l1-0.8L487.8,639.3z M167.5,579.3l314.3,56.3L291,392L167.5,579.3z"
			/>
		<path class="st0" d="M483.8,638.2L290,390.6l1.8-1.7l120,105.5l0.1,0.2l74,142.2L483.8,638.2z M300.3,399.7L477.4,626l-67.6-130
			L300.3,399.7z"/>
		<path class="st0" d="M563.3,651.3L483,638.5l0.7-1.5l119.6-271.5l2.1,0.7l-0.2,1L563.3,651.3z M486.6,636.5l74.6,12L601.3,376
			L486.6,636.5z"/>
		<path class="st0" d="M484.8,640.3l-75.7-145.6l197.7-131.2L484.8,640.3z M412.4,495.6l72.2,138.9L601,370.4L412.4,495.6z"/>
		<path class="st0" d="M560.7,651.2l42.4-287.6l184.5,281.1L560.7,651.2z M604.7,370.5l-41,278.1l219.5-6.3L604.7,370.5z"/>
		<path class="st0" d="M785.6,646.1L601.4,365.4l289.5,35.3l-0.7,1.5L785.6,646.1z M606.5,368.6l178.7,272.2l102.1-238L606.5,368.6z
			"/>
		<path class="st0" d="M785.9,644.6l-1.2-2.2l183.1-128.1h0.9l0.4,0.4l42.3,41.3L785.9,644.6z M968,517.2L794.8,638.4l211.9-83.4
			L968,517.2z"/>
		<path class="st0" d="M782.5,647l106.3-247.9l81.1,116.8l-1,0.7L782.5,647z M889.3,404.3l-101,235.6l178.1-124.6L889.3,404.3z"/>
		<path class="st0" d="M1250.5,703.1l-242.2-146.6l-40.9-39.9l-3.4-2.3h4.7l0.3,0.3L1251.8,701L1250.5,703.1z M1009.8,554.5
			l185.7,112.4l-217.1-143L1009.8,554.5z"/>
		<path class="st0" d="M1250.4,703l-283-186.4l0.8-2.3l194.4,23l89.5,164L1250.4,703z M973.3,517.5l274.3,180.7l-86.5-158.4
			L973.3,517.5z"/>
		<path class="st0" d="M1419.7,724.2L1248.6,703l246.6-276.6l2.2,1.1L1419.7,724.2z M1253.7,701.1l164.2,20.3l75.8-289.4
			L1253.7,701.1z"/>
		<path class="st0" d="M1250.9,704.2l-90.8-166.3l340.1-113.2L1250.9,704.2z M1163.8,539.3l87.7,160.6L1492.1,430L1163.8,539.3z"/>
		<path class="st0" d="M1417.1,724.3l78.7-300.6l132.5,267L1417.1,724.3z M1496.5,430.8l-76,290.4l204.1-32.4L1496.5,430.8z"/>
		<path class="st0" d="M1625.4,690.5l-131.1-172.4l0.6-90.9l2.4-0.6l130.3,262.5L1625.4,690.5z M1496.8,517.3l122.6,161.2
			l-122.1-245.9L1496.8,517.3z"/>
		<path class="st0" d="M1624.3,691.2l122.6-257.1l-0.3-1.4l0.9,0.1l1.2-2.5l0.6,2.8l0.8,0.1l-0.5,1.1l48.7,243.3L1624.3,691.2z
			 M1747.8,438.2l-119.3,250.1l166.8-12.9L1747.8,438.2z"/>
		<path class="st0" d="M1626.7,692.2L1493.5,517l257.2-84.9L1626.7,692.2z M1497.6,518.3l128.6,169l119.7-251L1497.6,518.3z"/>
		<path class="st0" d="M1796,679.1l-49.3-246.3l2.1,0.4l0.2,0.2l169.9,125.9L1796,679.1z M1750.1,437.2l47.4,236.8L1915,559.4
			L1750.1,437.2z"/>
		<path class="st0" d="M1918.7,562.1l-175.1-129.7l158.7,20.8l0.1,0.9L1918.7,562.1z M1752.9,436.1l162.4,120.3l-15.3-101
			L1752.9,436.1z"/>
		<path class="st0" d="M2164,728.8l-250-169.9l283.1-77.7l1.1,0.8l-0.1,0.8L2164,728.8z M1919.9,559.8l242.2,164.6l33.2-240.2
			L1919.9,559.8z"/>
		<path class="st0" d="M1916,560.9L1899.7,453l297.3,28.3l0.2,2.5L1916,560.9z M1902.7,455.8l15.4,102l271.9-74.6L1902.7,455.8z"/>
		<path class="st0" d="M2442.8,739.2l-281.1-11.4l34.4-248l1.8,1.9L2442.8,739.2z M2164.5,725.4l272.2,11l-239-251.1L2164.5,725.4z"
			/>
		<path class="st0" d="M2440.6,740.4l-247-259.6l288.2,34.1l-0.2,1.3L2440.6,740.4z M2200.2,484.2l238.8,251l39.8-218L2200.2,484.2z
			"/>
		<path class="st0" d="M2440.8,738.4l-2.2-1.3l134.9-256.5l0.5-1.1l2.5,0.9l-0.7,1.3l-0.9-0.4l0.9,0.4l-60,136.7L2440.8,738.4z
			 M2559.2,513.3l-102.8,195.4l57.1-91.3L2559.2,513.3z"/>
		<path class="st0" d="M2440.9,738.4l-2.3-0.8l40.6-222.4l98.1-36.2L2440.9,738.4z M2481.4,517l-38.9,213L2572,483.5L2481.4,517z"/>
		<path class="st0" d="M2512.4,620.2l61.6-140.5l1.1,0.4l140.9,69.7L2512.4,620.2z M2575.3,482.9l-58.3,133l192.5-66.6L2575.3,482.9
			z"/>
		<path class="st0" d="M2713.3,551.3l-139.2-68.9l0.5-2.4l174.4-3L2713.3,551.3z M2579.9,482.4l132.2,65.5l32.9-68.3L2579.9,482.4z"
			/>
		<path class="st0" d="M2989.4,728.7L2710,549.3L2993.4,437l1,1v0.5L2989.4,728.7z M2715.4,549.8l271.5,174.3l4.9-283.9
			L2715.4,549.8z"/>
		<path class="st0" d="M2710.2,551.9l36.1-74.8l246.7-39.9l0.7,2.4L2710.2,551.9z M2747.9,479.4l-32.7,67.8l266.7-105.7
			L2747.9,479.4z"/>
		<polygon class="st0" points="3000,717.2 2989.4,724.1 2994.3,442.5 3000,451 3000,446.5 2991.9,434.4 2986.9,726.4 2986.9,728.8
			3000,720.2 		"/>
		<polygon class="st0" points="3000,446.5 2995.2,439.3 3000,438.3 3000,435.7 2991,437.6 3000,451 		"/>
		<polygon class="st0" points="0,791.1 65.3,683.8 70.8,860.6 0,891.8 0,894.5 73.4,862.2 67.7,679.6 67.6,679.1 66.2,677.5
			0,786.3 		"/>
		<polygon class="st0" points="0,686.3 0,688.9 64,681.2 0,786.3 0,791.1 68.8,678 		"/>
		<path class="st0" d="M313.7,924.2L70.9,862.4l-5.7-182.8h1.2l1-0.9L313.7,924.2z M73.3,860.4l232.1,59L67.8,682.7L73.3,860.4z"/>
		<path class="st0" d="M308.7,922.7L64.6,679.6L165.8,578l145,343.3L308.7,922.7z M68.2,679.6L306,916.4l-141-334L68.2,679.6z"/>
		<path class="st0" d="M541.6,930l-234.2-7l176-285.8l-0.2-1.3l1,0.2l1.2-2l0.4,2.3l1,0.2l-0.7,1.2L541.6,930z M311.8,920.6
			l226.7,6.8l-54.4-286.6L311.8,920.6z"/>
		<path class="st0" d="M309.4,924.6l-146.1-346l323.5,57.9L309.4,924.6z M167.4,581.9l142.4,337.2l172.9-280.7L167.4,581.9z"/>
		<path class="st0" d="M539.1,930.7l-0.3-1.7l-55.6-293.1l2.2,0.4l0.3,0.3l193.8,216.9L539.1,930.7z M486.8,641.7L541,926.8
			l134.5-74L486.8,641.7z"/>
		<path class="st0" d="M676.5,854l-195-218.3l81.5,13.1l0.3,0.5l115.3,203.3L676.5,854z M488,639.2l182.6,204.3L561.4,651L488,639.2
			z"/>
		<path class="st0" d="M890.5,920.4l-214.8-66.5l109.9-213.5L890.5,920.4z M679.2,852.4l207.1,64.1L785.2,646.6L679.2,852.4z"/>
		<path class="st0" d="M677.5,855.8L560.1,648.7l227.4-6.5L677.5,855.8z M564.3,651l113.1,199.5l105.9-205.7L564.3,651z"/>
		<path class="st0" d="M887.6,920L784.2,643.9l1.2-0.5l0.7-1l332.5,210.1l-2.7,0.8L887.6,920z M787.9,646.5l101.2,270.4l223.3-65.3
			L787.9,646.5z"/>
		<path class="st0" d="M1117.9,855.1L782.7,643.2l227.2-89.4l0.4,1.2L1117.9,855.1z M788.2,643.7L1113.1,849l-104.8-291.9
			L788.2,643.7z"/>
		<path class="st0" d="M1197.7,889.6l-84.3-37.1l136.7-151.4l0.5-0.2l0.7,0.9l1.1,0.6l0,0l0,0L1197.7,889.6z M1117.6,851.6
			l78.5,34.5l52.3-179.2L1117.6,851.6z"/>
		<path class="st0" d="M1115,854.5l-108.3-301.9l246.4,149.1L1115,854.5z M1011.4,558.4L1116,849.7l133.2-147.4L1011.4,558.4z"/>
		<path class="st0" d="M1195.1,889.5l55-188.3l1.1-0.5l0.6,0.3l248,139.7l-3.6,0.6L1195.1,889.5z M1251.9,703.9l-53.3,182.5
			l293.6-47.1L1251.9,703.9z"/>
		<path class="st0" d="M1495.4,841l-244.8-137.9l0.8-2.3l168.2,20.8l77.5,117.6L1495.4,841z M1257.4,704l234.8,132.2L1418,724
			L1257.4,704z"/>
		<path class="st0" d="M1492.4,842.2l133.4-153.6h1.6l0.2,1l27.4,110.6L1492.4,842.2z M1625.8,692.4l-126.2,145.3l152.4-39.4
			L1625.8,692.4z"/>
		<path class="st0" d="M1495.8,842l-79.2-120.2l213-33.8L1495.8,842z M1420.8,723.7l75.2,114.1l127.1-146.3L1420.8,723.7z"/>
		<path class="st0" d="M1652.5,800.5l-27.2-110.1l-2-1.9h1.5l-0.7-2.7l2.8,2.7h0.5l0.2,0.6l105.7,103L1652.5,800.5z M1628.7,693.8
			l25.7,104l73.2-7.6L1628.7,693.8z"/>
		<path class="st0" d="M1730.7,793.2l-107.2-104.5l175.5-13.6L1730.7,793.2z M1629.3,690.8l100.9,98.3l64.3-111.1L1629.3,690.8z"/>
		<path class="st0" d="M1727.8,792.5l188.2-234l1.6,0.8l0.7,0.1l-24.9,231.2L1727.8,792.5z M1915.3,563.5l-182.2,226.4l158-1.7
			L1915.3,563.5z"/>
		<path class="st0" d="M1731.4,792l-2.1-1.4l66.5-114.9L1916,558.4l1.9,1.7L1731.4,792z M1797.8,677.4l-58,100.3l163.2-203
			L1797.8,677.4z"/>
		<path class="st0" d="M1890.8,790.9l0.2-1.6l24.8-230.3l0.6-1.9l1.4,1.2l241.3,198.4L1890.8,790.9z M1918,561.7L1893.7,788
			l259.3-33L1918,561.7z"/>
		<path class="st0" d="M2156.8,758.1l-240.6-197.8l1.5-2L2164.5,726L2156.8,758.1z M1939.1,575.8l216.2,177.8l6.4-26.5L1939.1,575.8
			z"/>
		<path class="st0" d="M2477.7,854.2l-2.3-0.7l-319.8-96.4l0.3-2.5l283.1-18l1.1-1.7l0.8,2.5L2477.7,854.2z M2163.1,756.7
			l310.8,93.7l-35-111.3L2163.1,756.7z"/>
		<path class="st0" d="M2154.4,757.2l7.7-32l277.7,11.2v2.5L2154.4,757.2z M2164.1,727.9l-6.4,26.6l257.9-16.4L2164.1,727.9z"/>
		<path class="st0" d="M2474.9,853.6l-36.2-115l-0.7-0.5l0.4-0.5l-0.9-2.8l1.9,1.3l0.8-1.1l0.7,2.1L2604.2,846L2474.9,853.6z
			 M2442,740.8l34.7,110.2l119.8-7.1L2442,740.8z"/>
		<path class="st0" d="M2602.9,848.1L2438,738.2l76.9-122.9L2602.9,848.1z M2441.4,737.4l156.3,104.3l-83.4-220.8L2441.4,737.4z"/>
		<path class="st0" d="M2598.2,846.9l0.9-2.4l112.4-295.3l1.5,0.3l0.8-0.4L2827,773.2l-1.4,0.5L2598.2,846.9z M2712.8,552.7
			l-110.4,290.2l221-71.2L2712.8,552.7z"/>
		<path class="st0" d="M2600.3,848.4L2513,617.3l201.8-69.8L2600.3,848.4z M2516.3,618.8l84.1,222.5l110.2-289.7L2516.3,618.8z"/>
		<polygon class="st0" points="2898.8,919.7 2898.8,919.7 2824.1,773 2711.4,549.9 2711.4,549.6 2713.8,549 2901,918.5 		"/>
		<path class="st0" d="M2900,922l-1.2-2.3L2709.5,546l280.3,180L2900,922z M2715.9,553.1l184,363.1l86.7-189.3L2715.9,553.1z"/>
		<polygon class="st0" points="3000,846.2 2906.5,912.8 3000,796.1 3000,792.1 2898.9,918.3 2900.6,920.1 3000,849.3 		"/>
		<polygon class="st0" points="3000,792.1 2905.3,910.3 2989.1,727.3 3000,720.2 3000,717.2 2987.5,725.4 2987.2,725.6
			2898.8,918.5 2900.9,919.9 3000,796.1 		"/>
		<polygon class="st0" points="0,951.8 128.5,980 0,1011.4 0,1014 134.3,981.1 134.3,978.7 0,949.2 		"/>
		<polygon class="st0" points="0,894.6 71.6,863 131.7,978.1 0,949.2 0,951.8 136.4,981.7 72.7,859.8 0,891.8 		"/>
		<path class="st0" d="M266,1081.2L131.4,979.4l177.9-58.8l0.8,1.3l0.8,0.2L266,1081.2z M136.7,980.3l127.9,96.7l43.2-153.2
			L136.7,980.3z"/>
		<path class="st0" d="M133.4,981.4L69.7,859.5l244.4,62.2L133.4,981.4z M74.5,863.3l60.1,115L305.1,922L74.5,863.3z"/>
		<path class="st0" d="M442.5,1124.6L263.7,1080l44.8-158.9l1.4-1.2l0.8,1.2L442.5,1124.6z M266.8,1078.2l170.1,42.5L310.1,924.8
			L266.8,1078.2z"/>
		<path class="st0" d="M439.8,1125.1L307.3,920.5l234.8,7.1L439.8,1125.1z M312,923.2l127.6,197L538,929.9L312,923.2z"/>
		<path class="st0" d="M440.6,1123.5l-1.9-1.6l126.8-162.3l111.7-107.9l2.3,1.2l-1.1,1.2L440.6,1123.5z M655.8,875.9l-88.4,85.4
			l-100.8,129.1L655.8,875.9z"/>
		<path class="st0" d="M440.6,1123.5l-2-1.5l100.5-194.2l0.3-0.2L676.8,852l1.5,1.9L440.6,1123.5z M541,929.7l-95.5,184.5
			l226.2-256.4L541,929.7z"/>
		<path class="st0" d="M723.3,1063.4L564.5,960.5l112.7-108.9l1.3,0.7l0.1,0.6L723.3,1063.4z M568.5,960.2l151.2,97.8l-42.9-202.4
			L568.5,960.2z"/>
		<path class="st0" d="M720.7,1063l-0.4-2l-44.5-209.6L890.9,918L720.7,1063z M679.1,855l43.2,203.3L885.8,919L679.1,855z"/>
		<path class="st0" d="M1122.2,1072.9h-1.3l-404.2-11.1L1116.8,850v2.1L1122.2,1072.9z M726.3,1059.6l393.3,10.8l-5.4-216.2
			L726.3,1059.6z"/>
		<path class="st0" d="M722.1,1061.8l-1.4-2.1l167.1-142.4l0.3-0.1l227.1-66.4l0.9,2.3L722.1,1061.8z M889,919.6l-158,134.6
			l373-197.4L889,919.6z"/>
		<path class="st0" d="M1119.8,1073.4l-5.6-225.6l2.4,3.6l122,181.2L1119.8,1073.4z M1116.9,856.4l5.3,213.5l112.5-38.7
			L1116.9,856.4z"/>
		<path class="st0" d="M1235.6,1032.6L1112,849.2l85.9,37.8l39.9,144.6L1235.6,1032.6z M1119,855l114.4,169.8l-37.6-136L1119,855z"
			/>
		<path class="st0" d="M1237.3,1032.9l-1.4-2.1l259.7-192.2h3.9l-2.7,2.2l-140.6,116.6L1237.3,1032.9z M1460.2,867.9L1265.6,1012
			l89.1-56.6L1460.2,867.9z"/>
		<path class="st0" d="M1235.9,1034l-40.6-147.1l1.4-0.2l299.1-48l0.9,2.3L1235.9,1034z M1198.5,888.9l38.9,140.9L1491.1,842
			L1198.5,888.9z"/>
		<path class="st0" d="M1625.7,1044.6L1352.8,957l143.5-119L1625.7,1044.6z M1357.9,956l262,84.1l-124.2-198.3L1357.9,956z"/>
		<path class="st0" d="M1623.6,1046L1494,839.1l160.9-41.7l-0.2,1.9L1623.6,1046z M1498,840.7l124.1,198l30-237.9L1498,840.7z"/>
		<path class="st0" d="M1620.5,1044.5l1.2-2.7L1729.6,790l2-0.4l0.1,1.4l12.4,208.7L1620.5,1044.5z M1729.5,796.5l-104.4,243.7
			l116.4-42.1L1729.5,796.5z"/>
		<path class="st0" d="M1624,1042.9l-2.4-0.7l30.7-244.2l80.1-8.3l-0.8,2L1624,1042.9z M1654.6,800.3l-29.4,233.4l103.3-241
			L1654.6,800.3z"/>
		<path class="st0" d="M2066.4,1097.1l-324.8-97.2V999l-12.3-207.2l-1.5-1.3l1.4-0.3l-0.1-2l1.8,1.6l0.8-0.2l0.1,1l335.9,304.4
			L2066.4,1097.1z M1744,998l317.8,95.1l-329.9-299L1744,998z"/>
		<path class="st0" d="M2065.9,1096.8l-338.7-306.9l165.7-1.8l0.4,0.7l174.6,306.5L2065.9,1096.8z M1733.7,792.4l328.2,297.3
			l-170.3-299L1733.7,792.4z"/>
		<path class="st0" d="M2065.1,1097.5l89.8-342.3l3.3-2.2l-0.8,3.2l-29.5,330.9L2065.1,1097.5z M2153.5,770.6l-85,323.7l56.9-9.4
			L2153.5,770.6z"/>
		<path class="st0" d="M2067.2,1099.2l-177-310.8l1.9-0.2l265.7-33.8L2067.2,1099.2z M1894.2,790.5l172.1,302.2l88-335.3
			L1894.2,790.5z"/>
		<path class="st0" d="M2125.2,1087.6l0.1-1.7l29.5-330.7l1.3-0.9l0.7,0.7l295.3,269.9L2125.2,1087.6z M2157,758.5l-29.1,326
			l318.8-61.1L2157,758.5z"/>
		<path class="st0" d="M2450.3,1026.6l-295.1-269.8l1.2-2.1l320.8,96.7L2450.3,1026.6z M2161,758.7l287.6,262.9l25.8-168.4
			L2161,758.7z"/>
		<path class="st0" d="M2555.1,1118.4l-107.4-94.2l0.8-1L2599.4,844l1.2,0.9l1,0.2L2555.1,1118.4z M2451.2,1024l102.2,89.6
			l44.9-264.3L2451.2,1024z"/>
		<path class="st0" d="M2447.6,1028.3l27.1-177.2h1l127.5-7.6L2447.6,1028.3z M2476.9,853.5l-25.5,166.4l146.1-173.6L2476.9,853.5z"
			/>
		<path class="st0" d="M2552.5,1118.8l46.8-274.6l1-1.7l1.1,1.6l106.2,160.3l-1,0.7L2552.5,1118.8z M2601.1,848.2l-45,264.9
			l148.2-109.2L2601.1,848.2z"/>
		<path class="st0" d="M2706.1,1006.6l-107.7-162.5l229.4-73.9L2706.1,1006.6z M2602.3,845.6l103.5,156.1l116.9-227.1L2602.3,845.6z
			"/>
		<polygon class="st0" points="3000,999.5 2712.1,1002.8 2899.8,920.5 3000,992 3000,988.9 2900.6,918 2899.4,917.2 2899,918.1
			2705.4,1003 2706,1005.4 3000,1002 		"/>
		<path class="st0" d="M2703.2,1006.7l122-237.1l76.4,150L2703.2,1006.7z M2825.2,775.2l-116.6,226.4l189.5-83.1L2825.2,775.2z"/>
		<polygon class="st0" points="3000,988.9 2904.6,920.9 3000,931.6 3000,929 2900.4,917.9 2899.4,917.2 2899.2,917.7 2895.2,917.3
			2898.3,919.5 2898,920.1 2899.5,920.3 3000,992 		"/>
		<polygon class="st0" points="3000,929 2903.3,918.2 3000,849.3 3000,846.2 2896.5,920 3000,931.6 		"/>
		<polygon class="st0" points="0,1107.6 118.8,996 0,1136.1 0,1140 135,980.7 133.2,979 0,1104.2 		"/>
		<polygon class="st0" points="0,1011.4 0,1014 130.6,982 0,1136.1 0,1140 137.5,977.7 		"/>
		<polygon class="st0" points="0,1107.6 132.9,982.7 138.5,1268.6 0,1192.8 0,1195.6 141.1,1272.9 135.2,977 0,1104.2 		"/>
		<path class="st0" d="M138.6,1274.8l-5.9-297.5L267,1078.8L138.6,1274.8z M135.4,982.4l5.6,284.2l122.6-187.2L135.4,982.4z"/>
		<path class="st0" d="M136.2,1274l128.5-196.3l0.9,0.2l177.8,44.3L136.2,1274z M265.8,1080.6l-122.5,187L436.1,1123L265.8,1080.6z"
			/>
		<path class="st0" d="M551.4,1271.3l-113.3-148.7l129.8-166.2L551.4,1271.3z M441.3,1122.7l107.9,141.7L565,964.3L441.3,1122.7z"/>
		<path class="st0" d="M547.3,1269.5l173.2-209.6l0.8,0.7h1.4l19.9,185L547.3,1269.5z M720.6,1063.8l-167.3,202.4l186.6-22.8
			L720.6,1063.8z"/>
		<path class="st0" d="M548.8,1271.6l16.5-313.5l158,102.3L548.8,1271.6z M567.6,962.6l-15.9,301.5L719.6,1061L567.6,962.6z"/>
		<path class="st0" d="M940.7,1257.9l-200.6-12.2l-20.2-188.1L940.7,1257.9z M742.4,1243.3l191.3,11.7l-210.6-191.1L742.4,1243.3z"
			/>
		<path class="st0" d="M937.3,1258.1l-219.1-198.8l405.8,11.1L937.3,1258.1z M724.9,1062l212.3,192.6l180.8-181.8L724.9,1062z"/>
		<path class="st0" d="M937.7,1257.6l-1.2-2.2l299.4-224.5l1.1,1l0.9-0.1l16.2,112.3L937.7,1257.6z M1235.7,1034.1l-291,218.2
			l306.7-110.1L1235.7,1034.1z"/>
		<path class="st0" d="M938,1257.4l-1.6-1.9l183.9-185l0.3-0.1l115.7-39.8l1.2,2.2L938,1257.4z M1121.7,1072.7L950.3,1245
			l279.2-209.3L1121.7,1072.7z"/>
		<path class="st0" d="M1462,1177.8l-210.4-33.6l-16.3-112.6l0.8-1.6l1.2,0.8l225.6,144.7L1462,1177.8z M1253.9,1142l202.6,32.3
			l-218.2-139.9L1253.9,1142z"/>
		<path class="st0" d="M1465.3,1180l-231-148.2l121.6-77.2l0.6,1.3L1465.3,1180z M1239,1031.9l220.2,141.2l-104.3-214.8L1239,1031.9
			z"/>
		<path class="st0" d="M1674.3,1219.9l-214.9-42.6l164.7-137.6v2.5L1674.3,1219.9z M1465.1,1175.9l205.7,40.8l-48.6-172.1
			L1465.1,1175.9z"/>
		<path class="st0" d="M1461.8,1178.6l-0.7-1.4L1353,954.4l272.4,87.5L1461.8,1178.6z M1357.8,958.6l104.9,216l157.6-131.7
			L1357.8,958.6z"/>
		<path class="st0" d="M1805,1327.9L1671.4,1219l-0.1-0.4l-49.7-176.1v-4.4l2.3,3.6l183,284.6L1805,1327.9z M1673.6,1217.6
			l126.8,103.4l-174.2-270.8L1673.6,1217.6z"/>
		<path class="st0" d="M1804.7,1327.6l-183.8-285.9l1.5-0.5l121.3-44l0.3,1.5l63,328L1804.7,1327.6z M1624.7,1043l178.6,277.8
			l-61.5-320.2L1624.7,1043z"/>
		<path class="st0" d="M1805,1329.3l-0.4-2.2l-63.4-330l328.1,98.2l-1.7,1.5L1805,1329.3z M1744.4,1000.7l62.2,323.8l257.7-228.1
			L1744.4,1000.7z"/>
		<path class="st0" d="M2135,1233.2l-1.2-2.2l315.1-208.1h0.1l1.3,2.1l-129.4,123l-0.2,0.1L2135,1233.2z M2438.4,1032.9
			l-289.6,191.3l170.7-78.3L2438.4,1032.9z"/>
		<path class="st0" d="M2133.3,1234.4l-8.1-149.4l324-62.1l0.9,2.3L2133.3,1234.4z M2127.9,1087l7.7,142.8l307.9-203.3L2127.9,1087z
			"/>
		<path class="st0" d="M2694,1208.9l-376.6-61.2l131.9-125.3l245.7,184.2L2694,1208.9z M2322.8,1146.1l366.5,59.5l-239.8-179.9
			L2322.8,1146.1z"/>
		<path class="st0" d="M2693.6,1208.7l-140-91.7l-105-92l1.6-2l244.9,183.6L2693.6,1208.7z M2475,1044.8l80.1,70.2l106.9,70
			L2475,1044.8z"/>
		<path class="st0" d="M2680.9,1293.6l-2.5-0.3l26.3-289.7l2.8-2.8l-0.3,3.7l-11.7,203.2L2680.9,1293.6z M2700.4,1079.3l-16.6,182.3
			l9.2-54.1L2700.4,1079.3z"/>
		<path class="st0" d="M2695.4,1209.9l-143.3-93.9l155.3-114.4L2695.4,1209.9z M2556.5,1115.9l136.7,89.5l11.4-198.6L2556.5,1115.9z
			"/>
		<polygon class="st0" points="3000,1178.2 2681.1,1291.6 2707,1006.2 3000,1158.5 3000,1155.7 2704.9,1002.2 2678.2,1295.2
			3000,1180.8 		"/>
		<polygon class="st0" points="3000,1155.7 2711,1005.4 3000,1002 3000,999.5 2705.9,1002.9 2705.4,1005.3 3000,1158.5 		"/>
		<path class="st4" d="M59.4,242.6c0-7-5.7-12.7-12.7-12.7l0,0c-7,0-12.7,5.7-12.7,12.7s5.7,12.7,12.7,12.7l0,0
			C53.7,255.3,59.4,249.6,59.4,242.6L59.4,242.6z"/>
		<path class="st1" d="M362.8,274.3c-3.8,0-6.9,3-6.9,6.8s3,6.9,6.8,6.9s6.9-3,6.9-6.8c0,0,0,0,0-0.1
			C369.6,277.4,366.6,274.3,362.8,274.3L362.8,274.3z"/>
		<path class="st1" d="M817.5,246.1c-13,0-23.5,10.6-23.5,23.6l0,0l0,0c0,13,10.5,23.5,23.5,23.5s23.5-10.5,23.5-23.5l0,0
			C841.1,256.6,830.6,246.1,817.5,246.1C817.6,246.1,817.6,246.1,817.5,246.1z"/>
		<path class="st0" d="M1290.1,183.2c-3.4,0-6.3,2.8-6.3,6.2s2.8,6.3,6.2,6.3c3.4,0,6.3-2.8,6.3-6.2l0,0
			C1296.3,186,1293.6,183.2,1290.1,183.2L1290.1,183.2z"/>
		<path class="st1" d="M1574.4,164.3c-9.3-3.1-19.4,1.9-22.5,11.2s1.9,19.4,11.2,22.5c9.3,3.1,19.4-1.9,22.5-11.2
			c0.6-1.8,0.9-3.7,0.9-5.7C1586.5,173.5,1581.7,166.7,1574.4,164.3z"/>
		<path class="st1" d="M1930.9,178.8L1930.9,178.8c-5.1,0-9.2,4.1-9.2,9.2c0,5.1,4.1,9.2,9.2,9.2l0,0c5.1,0,9.2-4.1,9.2-9.2
			C1940.1,182.9,1935.9,178.8,1930.9,178.8z"/>
		<path class="st1" d="M2460.7,181.4c2.4,0,4.7-0.6,6.8-1.7c6.9-3.8,9.5-12.4,5.7-19.4s-12.4-9.5-19.4-5.7
			c-6.9,3.8-9.5,12.4-5.7,19.4C2450.7,178.6,2455.5,181.4,2460.7,181.4z"/>
		<path class="st1" d="M2878.8,216.3c0-6.7-5.5-12.2-12.2-12.2s-12.2,5.5-12.2,12.2s5.5,12.2,12.2,12.2c2.8,0,5.6-1,7.8-2.8
			C2877.1,223.4,2878.8,220,2878.8,216.3z"/>
		<path class="st0" d="M58.9,461.1c0,6.9,5.6,12.5,12.5,12.5s12.5-5.6,12.5-12.5s-5.6-12.5-12.5-12.5S58.9,454.2,58.9,461.1
			L58.9,461.1z"/>
		<path class="st2" d="M291,400.1c5.7,0,10.3-4.6,10.3-10.2c0-5.7-4.6-10.3-10.2-10.3c-5.7,0-10.3,4.6-10.3,10.2c0,2,0.6,4,1.7,5.7
			C284.4,398.4,287.6,400.1,291,400.1z"/>
		<path class="st1" d="M423.5,495.2c0-7-5.8-12.7-12.8-12.7s-12.7,5.8-12.7,12.8s5.7,12.7,12.7,12.7
			C417.8,508,423.5,502.3,423.5,495.2L423.5,495.2z"/>
		<path class="st3" d="M607,357c-5.6-1.6-11.4,1.6-13,7.2c-1.6,5.4,1.4,11.2,6.8,12.9c5.6,1.6,11.4-1.6,13-7.2
			C615.4,364.5,612.4,358.8,607,357z"/>
		<path class="st2" d="M889.1,381.7c-11.1,0-20.1,8.9-20.1,20s8.9,20.1,20,20.1s20.1-8.9,20.1-20c0,0,0,0,0-0.1
			C909.1,390.7,900.2,381.7,889.1,381.7L889.1,381.7z"/>
		<path class="st0" d="M968.2,508.8L968.2,508.8c-3.8,0-6.8,3.1-6.8,6.8c0,3.8,3,6.8,6.8,6.8l0,0c3.8,0,6.8-3.1,6.8-6.8
			C975,511.8,971.9,508.8,968.2,508.8z"/>
		<path class="st0" d="M1161.9,527.2c-6.3,0-11.4,5-11.4,11.3s5,11.4,11.3,11.4s11.4-5,11.4-11.3l0,0
			C1173.3,532.3,1168.2,527.2,1161.9,527.2z"/>
		<path class="st4" d="M1496.1,409.4c-9.8,0-17.8,8-17.8,17.8l0,0l0,0c0,9.8,8,17.8,17.8,17.8s17.8-8,17.8-17.8l0,0l0,0
			C1513.9,417.4,1506,409.5,1496.1,409.4L1496.1,409.4z"/>
		<ellipse class="st1" cx="1495.5" cy="517.7" rx="18.3" ry="18.3"/>
		<path class="st1" d="M1750.5,423.5c-0.7-0.1-1.5-0.2-2.2-0.2c-6,0-10.9,4.9-10.9,10.9s4.9,10.9,10.9,10.9s10.9-4.9,10.9-10.9
			C1759.2,429,1755.5,424.5,1750.5,423.5z"/>
		<path class="st4" d="M1901.2,463.3c4.9,0,8.9-4,8.9-8.9s-4-8.9-8.9-8.9s-8.9,4-8.9,8.9C1892.2,459.3,1896.2,463.3,1901.2,463.3
			L1901.2,463.3z"/>
		<path class="st1" d="M2205.6,471.9c-2.4-2-5.5-3.1-8.7-3.1c-7.6,0-13.8,6.1-13.8,13.7s6.1,13.8,13.7,13.8
			c7.6,0,13.8-6.1,13.8-13.7C2210.6,478.4,2208.8,474.5,2205.6,471.9z"/>
		<path class="st1" d="M2470,516c0,5.7,4.6,10.3,10.3,10.2c5.7,0,10.3-4.6,10.2-10.3c0-5.7-4.6-10.2-10.3-10.2
			C2474.6,505.7,2470,510.3,2470,516L2470,516z"/>
		<path class="st4" d="M2584.5,481.2c0-5.5-4.4-9.9-9.9-9.9s-9.9,4.4-9.9,9.9c0,4,2.4,7.5,6,9.1c1.2,0.5,2.5,0.8,3.9,0.8
			C2580.1,491.1,2584.5,486.7,2584.5,481.2z"/>
		<path class="st1" d="M2747,470.4c-4.4,0-7.9,3.5-7.9,7.9s3.5,7.9,7.9,7.9s7.9-3.5,7.9-7.9l0,0
			C2754.9,473.9,2751.4,470.4,2747,470.4L2747,470.4z"/>
		<path class="st0" d="M3000,424.7c-7.6-3.8-16.9-0.8-20.7,6.8c-3.8,7.6-0.8,16.9,6.8,20.7c4.4,2.2,9.5,2.2,13.9,0V424.7z"/>
		<path class="st0" d="M66.4,698.2c10.3,0,18.6-8.3,18.6-18.5c0-10.3-8.3-18.6-18.5-18.6c-10.3,0-18.6,8.3-18.6,18.5
			c0,4.3,1.5,8.5,4.2,11.9C55.6,695.7,60.8,698.2,66.4,698.2z"/>
		<path class="st4" d="M165.4,571.8c-4.6,0-8.4,3.7-8.4,8.4c0,4.6,3.7,8.4,8.4,8.4s8.4-3.7,8.4-8.4l0,0
			C173.8,575.6,170,571.8,165.4,571.8L165.4,571.8z"/>
		<path class="st0" d="M486.9,627c-0.7-0.1-1.4-0.2-2.1-0.2c-5.9,0-10.6,4.8-10.6,10.7c0,5,3.6,9.3,8.4,10.3
			c0.7,0.1,1.4,0.2,2.1,0.2c5.9,0,10.7-4.7,10.7-10.6C495.4,632.4,491.9,628,486.9,627z"/>
		<ellipse class="st0" cx="562.2" cy="649.8" rx="8.5" ry="8.5"/>
		<path class="st1" d="M785.4,624.8c-10.3,0-18.7,8.3-18.7,18.6s8.3,18.7,18.6,18.7s18.7-8.3,18.7-18.6c0-2.5-0.5-5-1.5-7.3
			C799.7,629.3,792.9,624.8,785.4,624.8z"/>
		<path class="st3" d="M1009.1,540.5c-8.3,0-15,6.7-15,15s6.7,15,15,15s15-6.7,15-15S1017.3,540.5,1009.1,540.5L1009.1,540.5z"/>
		<path class="st4" d="M1251.2,709.8c1.3,0,2.6-0.3,3.7-0.9c3.8-2.1,5.2-6.8,3.1-10.6c-1.4-2.5-4-4.1-6.8-4.1
			c-1.3,0-2.6,0.3-3.7,0.9c-3.8,2.1-5.2,6.8-3.1,10.6C1245.7,708.2,1248.3,709.8,1251.2,709.8z"/>
		<path class="st0" d="M1418.8,715.9c-3.8,0-6.8,3-6.8,6.8s3,6.8,6.8,6.8s6.8-3,6.8-6.8l0,0C1425.6,719,1422.5,715.9,1418.8,715.9
			L1418.8,715.9z"/>
		<path class="st4" d="M1626.4,702L1626.4,702c6.8,0,12.2-5.5,12.2-12.2s-5.5-12.2-12.2-12.2l0,0l0,0c-6.8,0-12.2,5.5-12.2,12.2
			S1619.6,702,1626.4,702z"/>
		<path class="st3" d="M1810.3,676.6c0-7.5-6.1-13.6-13.6-13.6s-13.6,6.1-13.6,13.6s6.1,13.6,13.6,13.6
			C1804.3,690.2,1810.4,684.1,1810.3,676.6L1810.3,676.6z"/>
		<path class="st1" d="M1917,553c-3.5,0-6.2,2.8-6.2,6.3l0,0c0,3.4,2.8,6.2,6.2,6.3c2.1,0,4-1,5.2-2.8c0.7-1,1.1-2.3,1.1-3.5
			C1923.2,555.8,1920.5,553,1917,553z"/>
		<path class="st4" d="M2162.1,716.6c-7.8,0-14.1,6.3-14,14.1c0,3,1,6,2.8,8.4c-0.2,0.1-0.4,0.2-0.5,0.3c-6.8,3.7-9.4,12.2-5.7,19.1
			c3.7,6.8,12.2,9.4,19.1,5.7c6.8-3.7,9.4-12.2,5.7-19.1c-0.3-0.6-0.7-1.2-1.2-1.8c7-3.4,9.9-11.9,6.4-18.8
			C2172.3,719.7,2167.4,716.6,2162.1,716.6L2162.1,716.6z"/>
		<path class="st2" d="M2444.3,739.7c0.3-0.6,0.4-1.3,0.4-1.9c0-2.7-2.2-4.9-4.9-4.9s-4.9,2.2-4.9,4.9s2.2,4.9,4.9,4.9
			C2441.7,742.7,2443.5,741.5,2444.3,739.7z"/>
		<path class="st0" d="M2514.6,604c-7.7,0-14,6.2-14.1,13.9c0,7.7,6.2,14,13.9,14.1c7.7,0,14-6.2,14.1-13.9c0,0,0,0,0-0.1
			C2528.6,610.3,2522.4,604.1,2514.6,604z"/>
		<path class="st0" d="M2712.7,534.5c-8.3,0-15,6.7-15,15l0,0l0,0c0,8.3,6.7,15,15,15s15-6.7,15-15l0,0
			C2727.7,541.2,2721,534.5,2712.7,534.5L2712.7,534.5z"/>
		<path class="st4" d="M2998,726.4c0-5.4-4.4-9.8-9.9-9.8c-5.4,0-9.8,4.4-9.8,9.9c0,5.4,4.4,9.8,9.8,9.8
			C2993.6,736.3,2998,731.9,2998,726.4L2998,726.4z"/>
		<path class="st0" d="M72.1,839.2c-12.2,0-22.2,9.9-22.3,22.1c0,12.2,9.9,22.2,22.1,22.3c12.2,0,22.2-9.9,22.3-22.1c0,0,0,0,0-0.1
			C94.2,849.2,84.3,839.3,72.1,839.2z"/>
		<path class="st2" d="M309.6,912.7c-2.1,0-4.2,0.7-5.8,2.1c-3.9,3.2-4.4,9-1.2,12.8s9,4.4,12.8,1.2s4.4-9,1.2-12.8
			C314.9,913.9,312.3,912.6,309.6,912.7z"/>
		<path class="st0" d="M552,928.7c0-6.6-5.4-11.9-12-11.9s-11.9,5.4-11.9,12s5.4,11.9,11.9,11.9C546.7,940.7,552,935.4,552,928.7
			C552,928.8,552,928.8,552,928.7z"/>
		<path class="st0" d="M439.7,1115.3L439.7,1115.3c-4.1,0-7.3,3.3-7.3,7.4c0,4,3.3,7.3,7.3,7.3l0,0c4.1,0,7.3-3.3,7.3-7.4
			C447,1118.6,443.8,1115.3,439.7,1115.3z"/>
		<path class="st4" d="M684.1,840.8c-6.8-3.7-15.3-1.2-19,5.6s-1.2,15.3,5.6,19s15.3,1.2,19-5.6c1.1-2,1.7-4.3,1.7-6.7
			C691.5,848,688.7,843.3,684.1,840.8z"/>
		<path class="st0" d="M888.4,907.8c-5.9,0-10.6,4.8-10.6,10.6c0,5.9,4.8,10.6,10.6,10.6c5.9,0,10.6-4.7,10.6-10.6
			C899,912.6,894.3,907.9,888.4,907.8L888.4,907.8z"/>
		<path class="st3" d="M1115.5,864.3c6.7,0,12.2-5.5,12.2-12.2l0,0l0,0c0-6.7-5.4-12.2-12.1-12.2s-12.2,5.4-12.2,12.1l0,0l0,0
			C1103.3,858.8,1108.8,864.3,1115.5,864.3z"/>
		<path class="st1" d="M1196.9,876.9c-6.1,0-11,4.9-11,10.9c0,6.1,4.9,11,10.9,11s11-4.9,11-10.9l0,0
			C1207.8,881.9,1202.9,876.9,1196.9,876.9z"/>
		<path class="st4" d="M1496,834L1496,834c-3.3,0-5.9,2.6-5.9,5.9c0,3.3,2.6,5.9,5.9,5.9l0,0c3.3,0,5.9-2.6,5.9-5.9
			S1499.3,834,1496,834L1496,834z"/>
		<path class="st1" d="M1644.4,799.2c0,5,4.1,9.1,9.1,9c5,0,9.1-4.1,9-9.1c0-5-4.1-9-9.1-9C1648.5,790.1,1644.4,794.1,1644.4,799.2
			L1644.4,799.2z"/>
		<path class="st1" d="M1734.8,805c7.7-2.4,11.9-10.5,9.5-18.2c-1.9-6.1-7.5-10.2-13.8-10.2l0,0c-8,0-14.6,6.5-14.6,14.5
			s6.5,14.6,14.5,14.6C1731.9,805.7,1733.3,805.5,1734.8,805z"/>
		<path class="st4" d="M1892.2,765.9c-13-0.1-23.6,10.4-23.6,23.4c-0.1,13,10.4,23.6,23.4,23.6c13,0.1,23.6-10.4,23.6-23.4v-0.1
			C1915.7,776.5,1905.2,766,1892.2,765.9z"/>
		<path class="st1" d="M2066.8,1064c-17.6,0-31.9,14.2-32,31.9c0,17.6,14.2,31.9,31.9,32s31.9-14.2,32-31.9c0-6.4-1.9-12.6-5.4-17.9
			C2087.3,1069.3,2077.4,1064,2066.8,1064z"/>
		<path class="st0" d="M2475.8,837.1c-8.4,0-15.2,6.8-15.2,15.2s6.8,15.2,15.2,15.2s15.2-6.8,15.2-15.2l0,0
			C2491,843.9,2484.2,837.1,2475.8,837.1L2475.8,837.1z"/>
		<path class="st4" d="M2600.3,837c-3.2,0-6,1.9-7.2,4.8c-0.4,1-0.6,2-0.6,3.1c0,4.3,3.5,7.9,7.9,7.8c4.3,0,7.9-3.5,7.8-7.9
			C2608.2,840.5,2604.7,837,2600.3,837z"/>
		<path class="st4" d="M2825.2,756c-9.1,0-16.5,7.3-16.5,16.4c0,9.1,7.3,16.5,16.4,16.5c9.1,0,16.5-7.3,16.5-16.4c0,0,0,0,0-0.1
			C2841.6,763.4,2834.3,756,2825.2,756L2825.2,756z"/>
		<path class="st4" d="M2899.9,906.5c-7,0-12.6,5.7-12.6,12.7c-0.2,7,5.3,12.7,12.2,12.9c7,0.2,12.7-5.3,12.9-12.2
			c0-0.2,0-0.5,0-0.7l0,0l0,0C2912.5,912.1,2906.9,906.5,2899.9,906.5L2899.9,906.5z"/>
		<path class="st2" d="M134,993.7L134,993.7c7.6,0,13.8-6.2,13.8-13.8s-6.2-13.7-13.8-13.8l0,0c-7.6,0-13.8,6.2-13.8,13.8
			C120.3,987.5,126.4,993.6,134,993.7z"/>
		<path class="st4" d="M265.3,1062.9c-8.9,0-16.2,7.2-16.2,16.1s7.2,16.2,16.1,16.2s16.2-7.2,16.2-16.1c0,0,0,0,0-0.1
			C281.4,1070.2,274.2,1063,265.3,1062.9L265.3,1062.9z"/>
		<path class="st2" d="M139.8,1248.1c-12.5,0-22.7,10.1-22.8,22.6c0,12.5,10.1,22.7,22.6,22.8s22.7-10.1,22.8-22.6v-0.1
			C162.5,1258.3,152.3,1248.1,139.8,1248.1z"/>
		<path class="st0" d="M566.5,946c-7.9,0-14.4,6.4-14.4,14.3c0,7.9,6.4,14.4,14.3,14.4c7.9,0,14.4-6.4,14.4-14.3c0,0,0,0,0-0.1
			C580.8,952.5,574.4,946,566.5,946L566.5,946z"/>
		<path class="st4" d="M550.3,1256.2c-6.4,0-11.6,5.2-11.6,11.6s5.2,11.6,11.6,11.6c6.4,0,11.6-5.2,11.6-11.6l0,0
			C561.9,1261.4,556.7,1256.2,550.3,1256.2L550.3,1256.2z"/>
		<path class="st0" d="M741.3,1231.3c-7.2,0-13.1,5.8-13.2,13.1c0,7.2,5.8,13.1,13.1,13.2c7.2,0,13.1-5.8,13.2-13.1c0,0,0,0,0-0.1
			C754.4,1237.2,748.5,1231.3,741.3,1231.3z"/>
		<path class="st4" d="M728.6,1061.4c0-0.2,0-0.5,0-0.7c0-3.9-3.2-7.1-7.2-7.1c-3.6,0-6.7,2.8-7.1,6.4c0,0.2,0,0.5,0,0.7
			c0,3.9,3.2,7.1,7.2,7.1C725.2,1067.8,728.2,1065,728.6,1061.4z"/>
		<path class="st1" d="M1121,1062.7c-4.9,0-8.9,3.9-8.9,8.8s3.9,8.9,8.8,8.9s8.9-3.9,8.9-8.8l0,0
			C1129.8,1066.7,1125.9,1062.8,1121,1062.7z"/>
		<path class="st0" d="M937.2,1246.2c-5.6,0-10.2,4.5-10.2,10.1s4.5,10.2,10.1,10.2s10.2-4.5,10.2-10.1l0,0
			C947.3,1250.8,942.8,1246.3,937.2,1246.2z"/>
		<path class="st0" d="M1250.6,1039.4c4.2-7.7,1.3-17.3-6.4-21.5c-7.7-4.2-17.3-1.3-21.5,6.4c-4.2,7.7-1.3,17.3,6.4,21.5
			c2.3,1.2,4.9,1.9,7.5,1.9C1242.5,1047.8,1247.8,1044.6,1250.6,1039.4z"/>
		<path class="st4" d="M1252.8,1132.7c-5.7,0-10.4,4.6-10.4,10.3c0,5.7,4.6,10.4,10.3,10.4c5.7,0,10.4-4.6,10.4-10.3l0,0
			C1263.1,1137.4,1258.5,1132.8,1252.8,1132.7L1252.8,1132.7z"/>
		<path class="st2" d="M1355.4,945.8c-5.9,0-10.7,4.7-10.7,10.6c0,5.9,4.7,10.7,10.6,10.7s10.7-4.7,10.7-10.6c0,0,0,0,0-0.1
			C1366,950.6,1361.3,945.9,1355.4,945.8z"/>
		<path class="st2" d="M1462.2,1157.6c-10.5,0-19,8.5-19,19s8.5,19,19,19s19-8.5,19-19l0,0
			C1481.2,1166.1,1472.7,1157.6,1462.2,1157.6z"/>
		<path class="st1" d="M1672.5,1208.2c-5.6,0-10.1,4.5-10.2,10.1c0,5.6,4.5,10.1,10.1,10.2s10.1-4.5,10.2-10.1l0,0
			C1682.6,1212.7,1678.1,1208.2,1672.5,1208.2L1672.5,1208.2z"/>
		<path class="st4" d="M1622.8,1029c-7.3,0-13.3,6-13.3,13.3l0,0c0,7.3,5.9,13.3,13.3,13.3s13.3-5.9,13.3-13.3l0,0
			C1636.1,1035,1630.2,1029,1622.8,1029z"/>
		<path class="st1" d="M1742.8,989.6c-5.2,0-9.4,4.2-9.4,9.3c0,5.2,4.2,9.4,9.3,9.4c5.2,0,9.4-4.2,9.4-9.3l0,0
			C1752.1,993.8,1748,989.6,1742.8,989.6z"/>
		<path class="st0" d="M1805.8,1302.8c-13.4,0-24.2,10.7-24.3,24.1s10.7,24.2,24.1,24.3s24.2-10.7,24.3-24.1c0,0,0,0,0-0.1
			C1829.9,1313.6,1819.1,1302.8,1805.8,1302.8z"/>
		<path class="st1" d="M2133.9,1086c0-4.1-3.3-7.3-7.4-7.3c-4.1,0-7.3,3.3-7.3,7.4s3.3,7.3,7.3,7.3
			C2130.6,1093.4,2133.9,1090.1,2133.9,1086L2133.9,1086z"/>
		<path class="st3" d="M2134.5,1217c-8.3,0-15.1,6.7-15.1,15.1s6.7,15.1,15.1,15.1c8.3,0,15.1-6.7,15.1-15.1l0,0
			C2149.5,1223.8,2142.8,1217,2134.5,1217z"/>
		<path class="st2" d="M2449.5,1008.7c-2.1,0-4.1,0.4-6,1.2c-7.8,3.3-11.4,12.3-8.2,20.1c3.3,7.8,12.3,11.4,20.1,8.2
			c7.8-3.3,11.4-12.3,8.2-20.1C2461.1,1012.5,2455.6,1008.8,2449.5,1008.7z"/>
		<path class="st2" d="M2320.2,1135.9c-6.1,0-11,4.9-11,11s4.9,11,11,11s11-4.9,11-11S2326.3,1135.9,2320.2,1135.9L2320.2,1135.9z"
			/>
		<path class="st1" d="M2554.3,1102.8c-7.3,0-13.2,5.9-13.2,13.1c0,7.3,5.9,13.2,13.1,13.2c7.3,0,13.2-5.9,13.2-13.1l0,0
			C2567.4,1108.7,2561.5,1102.8,2554.3,1102.8z"/>
		<path class="st4" d="M2694.3,1193.1c-8,0-14.6,6.5-14.6,14.5s6.5,14.6,14.5,14.6s14.6-6.5,14.6-14.5c0,0,0,0,0-0.1
			C2708.8,1199.6,2702.3,1193.1,2694.3,1193.1z"/>
		<path class="st1" d="M2706,984.5c-10.9-0.1-19.8,8.7-19.9,19.6c-0.1,10.9,8.7,19.8,19.6,19.9c10.9,0.1,19.8-8.7,19.9-19.6v-0.1
			c0.1-10.8-8.7-19.7-19.5-19.7C2706.1,984.5,2706,984.5,2706,984.5z"/>
		<path class="st4" d="M2679.6,1270.8c-12.5,0-22.6,10.1-22.7,22.6c0,12.5,10.1,22.6,22.6,22.7s22.6-10.1,22.7-22.6l0,0
			C2702.2,1280.9,2692.1,1270.8,2679.6,1270.8C2679.7,1270.8,2679.6,1270.8,2679.6,1270.8z"/>
	</g>
</g>
</svg>
