<?xml version="1.0" encoding="utf-8"?>
<!-- Generator: Adobe Illustrator 25.2.3, SVG Export Plug-In . SVG Version: 6.00 Build 0)  -->
<svg version="1.1" id="Layer_1" xmlns:sketch="http://www.bohemiancoding.com/sketch/ns"
	 xmlns="http://www.w3.org/2000/svg" xmlns:xlink="http://www.w3.org/1999/xlink" x="0px" y="0px" viewBox="0 0 20.2 20.2"
	 style="enable-background:new 0 0 20.2 20.2;" xml:space="preserve">
<style type="text/css">
	.st0{display:none;}
	.st1{display:inline;}
	.st2{fill-rule:evenodd;clip-rule:evenodd;}
	.st3{fill:none;stroke:#000000;stroke-miterlimit:10;}
</style>
<desc>Created with Sketch.</desc>
<g id="Page-1" sketch:type="MSPage" class="st0">
	<g id="icon-135-pen-angled" sketch:type="MSArtboardGroup" class="st1">
		<path id="pen-angled" sketch:type="MSShapeGroup" class="st2" d="M16.4,6.3L5.2,17.6l0,0L2.6,15L13.8,3.7L16.4,6.3L16.4,6.3z
			 M17.1,5.6l1.7-1.7c0.4-0.4,0.4-1,0-1.4l-1.2-1.2c-0.4-0.4-1-0.4-1.4,0L14.6,3L17.1,5.6L17.1,5.6z M1.9,15.8l-0.6,3.1l3.1-0.6
			L1.9,15.8L1.9,15.8L1.9,15.8z M1,15.2l-1,5l5-1L19.6,4.6c0.8-0.8,0.8-2.1,0-2.8l-1.2-1.2c-0.8-0.8-2-0.8-2.8,0L1,15.2L1,15.2z"/>
	</g>
</g>
<circle class="st3" cx="10.2" cy="5" r="4.5"/>
<path class="st3" d="M18.8,19.7c0-0.2,0-0.3,0-0.5c0-4.7-3.8-8.5-8.5-8.5s-8.5,3.8-8.5,8.5c0,0.2,0,0.3,0,0.5H18.8z"/>
</svg>
