<?xml version="1.0" encoding="utf-8"?>
<!-- Generator: Adobe Illustrator 25.2.3, SVG Export Plug-In . SVG Version: 6.00 Build 0)  -->
<svg version="1.1" id="Bold" xmlns="http://www.w3.org/2000/svg" xmlns:xlink="http://www.w3.org/1999/xlink" x="0px" y="0px"
	 viewBox="0 0 512 320" style="enable-background:new 0 0 512 320;" xml:space="preserve">
<style type="text/css">
	.st0{fill:#E49C9F;}
</style>
<path class="st0" d="M465.6,96h-46.7v46.4h-46.4v46.7h46.4v46.4h46.7v-46.4H512v-46.7h-46.4V96z"/>
<path class="st0" d="M160,320c92.3,0,153.7-64.8,153.7-156.3c0-10.5-1.1-18.6-2.6-26.6H160v55h90.8c-3.7,23.4-27.5,69-90.8,69
	c-54.5,0-99.1-45.2-99.1-101.1S105.5,58.9,160,58.9c31.2,0,51.9,13.3,63.7,24.7l43.4-41.7C239.2,15.7,203.2,0,160,0
	C71.6,0,0,71.6,0,160S71.6,320,160,320L160,320z"/>
</svg>
